<?xml version="1.0" encoding="utf-8"?>
<!-- Generator: Adobe Illustrator 23.0.6, SVG Export Plug-In . SVG Version: 6.00 Build 0)  -->
<svg version="1.1" id="Layer_1" xmlns="http://www.w3.org/2000/svg" xmlns:xlink="http://www.w3.org/1999/xlink" x="0px" y="0px"
	 viewBox="0 0 1600 1928" style="enable-background:new 0 0 1600 1928;" xml:space="preserve">
<style type="text/css">
	.st0{opacity:0.81;fill:none;stroke:#0C0C0C;stroke-miterlimit:10;}
	.st1{opacity:0.81;fill:#3B3B39;stroke:#0C0C0C;stroke-miterlimit:10;}
	.st2{opacity:0.81;fill:#DCDCDC;stroke:#0C0C0C;stroke-miterlimit:10;}
	.st3{opacity:0.81;fill:#4A4941;stroke:#0C0C0C;stroke-miterlimit:10;}
	.st4{opacity:0.81;fill:#494949;stroke:#0C0C0C;stroke-miterlimit:10;}
	.st5{fill:#82837D;stroke:#0C0C0C;stroke-miterlimit:10;}
	.st6{fill:#4D4D4D;stroke:#0C0C0C;stroke-miterlimit:10;}
	.st7{opacity:0.81;fill:#ABADAE;stroke:#0C0C0C;stroke-miterlimit:10;}
	.st8{fill:#C9C8C5;stroke:#0C0C0C;stroke-miterlimit:10;}
	.st9{fill:#9C9C9C;}
	.st10{opacity:0.81;fill:#9C9C9C;}
	.st11{opacity:0.81;fill:none;}
	.st12{fill:#161615;stroke:#0C0C0C;stroke-miterlimit:10;}
	.st13{fill:#1D1D1C;stroke:#0C0C0C;stroke-miterlimit:10;}
	.st14{fill:#161612;stroke:#0C0C0C;stroke-miterlimit:10;}
	.st15{fill:#0D110D;stroke:#0C0C0C;stroke-miterlimit:10;}
	.st16{opacity:0.81;fill:#181716;stroke:#0C0C0C;stroke-miterlimit:10;}
	.st17{fill:#96979B;stroke:#0C0C0C;stroke-miterlimit:10;}
	.st18{fill:#3F3F3B;stroke:#0C0C0C;stroke-miterlimit:10;}
	.st19{fill:none;stroke:#0C0C0C;stroke-miterlimit:10;}
	.st20{fill:#3F3F3B;stroke:#000000;stroke-miterlimit:10;}
	.st21{fill:none;stroke:#000000;stroke-miterlimit:10;}
	.st22{fill:#B6B6B7;stroke:#0C0C0C;stroke-miterlimit:10;}
	.st23{fill:#B6B6B7;}
	.st24{fill:#D6D5D7;stroke:#0C0C0C;stroke-miterlimit:10;}
	.st25{fill:#2A2A27;stroke:#0C0C0C;stroke-miterlimit:10;}
	.st26{fill:#C1C2C0;stroke:#0C0C0C;stroke-miterlimit:10;}
	.st27{fill:#312F2A;stroke:#0C0C0C;stroke-miterlimit:10;}
	.st28{fill:#464645;stroke:#0C0C0C;stroke-miterlimit:10;}
	.st29{fill:#2F3231;stroke:#0C0C0C;stroke-miterlimit:10;}
	.st30{fill:#C0C0BE;}
</style>
<g>
	<g>
		<path class="st0" d="M291.83,1744.97"/>
		<path class="st1" d="M375.7,1811.16c-41.69,53.81-94.99,57.6-125.05,48c-9.34-2.98-16.83-9.02-22.29-17.15
			c-18.51-27.56-13.61-79.13,21.99-116.88c47.28-50.14,89.65-72.99,134.19-50.39c4.13,3.12,7.76,6.45,10.91,9.98
			c7.63,8.56,12.39,18.25,14.54,28.79C415.79,1741.86,402.69,1776.32,375.7,1811.16z"/>
		
			<ellipse transform="matrix(0.6796 -0.7336 0.7336 0.6796 -1193.1481 797.2791)" class="st2" cx="316.11" cy="1764.5" rx="70.79" ry="47.63"/>
		
			<ellipse transform="matrix(0.6796 -0.7336 0.7336 0.6796 -1193.5885 796.0684)" class="st3" cx="314.51" cy="1764.4" rx="47.62" ry="30.34"/>
		<path class="st4" d="M395.45,1684.72c-3.15-3.53-6.78-6.86-10.91-9.98c-44.54-22.6-86.91,0.25-134.19,50.39
			c-35.6,37.75-40.5,89.32-21.99,116.88c-3.71-2.2-8.67-5.57-13.82-10.45c-2.44-2.32-4.93-4.98-7.35-8.02
			c-3.26-4.11-8.99-11.45-12.38-22.48c-3.99-13-2.48-23.8-1.01-34.36c1.77-12.68,5.25-21.79,8.34-29.81
			c3.3-8.57,8.23-21.12,18.19-35.12c2.63-3.7,14.49-19.98,35.87-34.86c7.37-5.13,21.7-14.92,43.2-20.97
			c28.08-7.9,47.33-4.78,48.51-4.55c0.03,0.01,5.05,1.01,5.05,1.01c0.68,0.5,1.35,1.01,2.02,1.52c7.61,5.78,20.23,15.45,32.34,30.06
			C389.39,1676.48,392.26,1680.11,395.45,1684.72z"/>
		<path class="st0" d="M299.41,1666.01"/>
		<path class="st5" d="M610.68,1480.62l-126.35,169.61c-2.67,2.96-6.99,7.22-13.14,11.12c-6.28,3.98-9.91,4.7-15.16,7.58
			c-7.99,4.39-11.85,9.48-18.18,16.67c-6.15,6.97-15.22,16.59-27.86,27.91c-2.15-10.54-6.91-20.23-14.54-28.79
			c-3.19-4.61-6.06-8.24-8.13-10.74c-12.11-14.61-24.73-24.28-32.34-30.06c-0.67-0.51-1.34-1.02-2.02-1.52c0,0-5.02-1-5.05-1.01
			c-1.18-0.23-20.43-3.35-48.51,4.55c-21.5,6.05-35.83,15.84-43.2,20.97c-21.38,14.88-33.24,31.16-35.87,34.86
			c-9.96,14-14.89,26.55-18.19,35.12c-3.09,8.02-6.57,17.13-8.34,29.81c-1.47,10.56-2.98,21.36,1.01,34.36
			c3.39,11.03,9.12,18.37,12.38,22.48c-3.11-0.84-6.23-1.68-9.34-2.53c-10.01-3.64-23.68-9.97-37.39-21.22
			c-24.75-20.29-34.84-44.47-39.41-55.58c-2.48-6.01-5.5-13.46-7.6-22.63c-1.34-5.88-2.31-12.45-2.51-19.81
			c-0.61-21.77,5.78-38.69,9.6-48.5c3.99-10.27,7.63-16.24,13.64-26.78c21.55-37.77,17.38-35.66,35.37-66.7
			c3.02-5.21,5.67-9.63,8.05-13.51c2.37-3.88,4.98-8.01,5.13-8.24c0.49-0.78,0.85-1.35,0.99-1.57c3.23-5.07,8.41-13.11,11.89-19.17
			c2.51-4.37,5.17-9.31,8.3-15.61c7.08-14.27,12.06-26.37,15.16-34.36C265.05,1406.87,357,1285.94,357,1285.94l251.51,193.01
			L610.68,1480.62z"/>
		<path class="st6" d="M183.72,1536.47c-0.14,0.22-0.5,0.79-0.99,1.57c-0.15,0.23-2.76,4.36-5.13,8.24
			c-2.38,3.88-5.03,8.3-8.05,13.51c-17.99,31.04-13.82,28.93-35.37,66.7c-6.01,10.54-9.65,16.51-13.64,26.78
			c-3.82,9.81-10.21,26.73-9.6,48.5c0.2,7.36,1.17,13.93,2.51,19.81l-15.27-13.62c-3.97-4.91-9.65-13.19-12.88-24.63
			c-4.51-15.94-1.78-29.15,1.13-43.2c1.87-9.02,4.94-23.2,14.4-39.03c8.95-14.96,19.31-24.2,29.56-33.35
			c10.59-9.44,18.39-14.72,20.84-16.29c8.51-5.48,16.31-9.22,22.36-11.75L183.72,1536.47z"/>
		<path class="st7" d="M638.94,1429.43c-0.44,0.63-1.61,2.48-1.52,5.06c0.14,3.56,2.62,5.71,3.04,6.06
			c-4.05,0.17-8.09,0.34-12.13,0.51c1.18,3.87,2.36,7.74,3.54,11.62c-4.21,0.16-8.42,0.33-12.64,0.5c1.18,3.88,2.36,7.75,3.54,11.62
			h-12.12c1.01,3.2,2.02,6.4,3.03,9.6c-1.73,1.52-3.45,3.04-5.17,4.55L357,1285.94l9.1-0.51c-0.34-3.2-0.68-6.4-1.01-9.6
			c3.37,0.51,6.73,1.01,10.1,1.52c0.68-2.36,1.35-4.72,2.02-7.07c-1.51-2.19-3.03-4.38-4.54-6.57c3.7,0.5,7.41,1.01,11.11,1.51
			c0.74-1.51,1.5-3.69,1.01-6.06c-0.64-3.16-3.05-4.59-2.52-5.56c0.87-1.6,7.45,2.21,10.61-0.5c1.67-1.44,1.86-4.27,1.51-6.07
			c-0.65-3.32-3.48-4.63-3.03-5.55c0.79-1.63,9.43,2.6,11.62,0c1.98-2.36-3.09-8.16-1.01-10.61c1.82-2.14,6.72,1.02,9.1-1.01
			c1.45-1.25,2.09-4.57-1.52-13.65c82.19,63.33,164.38,126.66,246.57,189.98c0.34,3.37,0.67,6.74,1.01,10.11
			c-3.37,0.33-6.74,0.67-10.11,1.01c0.85,4.21,1.69,8.42,2.53,12.63C646.01,1429.77,642.48,1429.6,638.94,1429.43z"/>
		<line class="st0" x1="366.1" y1="1285.43" x2="610.65" y2="1464.8"/>
		<line class="st0" x1="365.09" y1="1275.83" x2="620.25" y2="1456.52"/>
		<line class="st0" x1="375.19" y1="1277.35" x2="631.87" y2="1452.68"/>
		<line class="st0" x1="377.21" y1="1270.28" x2="628.33" y2="1441.06"/>
		<line class="st0" x1="383.78" y1="1265.22" x2="640.46" y2="1440.55"/>
		<line class="st0" x1="384.79" y1="1259.16" x2="637.42" y2="1434.49"/>
		<line class="st0" x1="392.88" y1="1253.1" x2="638.94" y2="1429.43"/>
		<line class="st0" x1="394.39" y1="1247.03" x2="649.55" y2="1429.94"/>
		<line class="st0" x1="401" y1="1242.32" x2="648.28" y2="1423.55"/>
		<line class="st0" x1="401.97" y1="1230.87" x2="647.02" y2="1417.31"/>
		<line class="st0" x1="411.07" y1="1229.86" x2="657.13" y2="1416.3"/>
		<g>
			<path class="st8" d="M656.12,1406.19l12.13,7.08c1.94,1.8,4.95,4.22,9.09,6.06c7.44,3.32,13.31,2.5,20.72,3.03
				c5.54,0.4,11.27,2.12,22.74,5.56c13.95,4.18,17.78,6.82,37.39,13.14c1.37,0.44,4.31,3,8.08,2.53c4.01-0.51,6.67-3.77,8.08-5.56
				c9.03-11.41,18.32-24.6,20.21-27.28c-140.13-107.12-280.25-214.23-420.38-321.35c-8.76,11.62-17.52,23.24-26.27,34.86
				c7.08,8.47,14.51,18.38,21.73,29.81c11.67,18.49,19.68,36.07,25.26,51.03l14.65,11.11"/>
			<path class="st9" d="M456.15,1220.41l-10.3-11.93c-1.98-1.5-2.37-4.33-0.87-6.31l24.36-32.15c1.5-1.98,4.33-2.37,6.31-0.87
				l14.91,11.3c1.98,1.5,2.37,4.33,0.87,6.31l-24.36,32.15C465.57,1220.89,461.9,1223.26,456.15,1220.41z"/>
			<path class="st9" d="M415.11,1185.45l-14.65-11.1c-1.98-1.5-2.37-4.33-0.87-6.31l24.48-32.31c1.5-1.98,4.33-2.37,6.31-0.87
				l14.65,11.1c1.98,1.5,2.37,4.33,0.87,6.31l-24.48,32.31C419.92,1186.56,417.09,1186.95,415.11,1185.45z"/>
			<path class="st9" d="M381.3,1157.06l-10.08-7.64c-1.98-1.5-2.37-4.33-0.87-6.31l23.15-30.55c1.5-1.98,4.33-2.37,6.31-0.87
				l10.08,7.64c1.98,1.5,2.37,4.33,0.87,6.31l-23.15,30.55C386.11,1158.18,383.28,1158.57,381.3,1157.06z"/>
			<path class="st10" d="M384.1,1105.69l-20.13,26.58c-1.47,1.95-6.36,2.85-8.3,1.38l-5.72-6.45c-1.96-1.48-2.33-4.25-0.85-6.21
				l20.13-26.57c1.48-1.96,4.25-2.34,6.21-0.85l7.81,5.92C385.2,1100.97,385.58,1103.74,384.1,1105.69z"/>
			<path class="st9" d="M509.43,1257.86l-11.26-8.54c-3.66-2.77-4.38-7.99-1.61-11.65l19.48-25.71c2.77-3.66,7.99-4.38,11.65-1.61
				l11.26,8.54c3.66,2.77,4.38,7.99,1.61,11.65l-19.48,25.71C518.31,1259.91,513.09,1260.63,509.43,1257.86z"/>
			<path class="st9" d="M567.41,1300.16l-11.61-8.79c-3.54-2.68-4.24-7.73-1.55-11.28l20.02-26.42c2.68-3.54,7.73-4.24,11.28-1.55
				l11.61,8.79c3.54,2.68,4.24,7.73,1.55,11.28l-20.02,26.42C576,1302.15,570.95,1302.84,567.41,1300.16z"/>
			<path class="st9" d="M623.11,1342.85l-10.57-8.01c-3.7-2.8-4.42-8.07-1.62-11.77l20.05-26.47c2.8-3.7,8.07-4.42,11.77-1.62
				l10.57,8.01c3.7,2.8,4.42,8.07,1.62,11.77l-20.05,26.47C632.08,1344.92,626.81,1345.65,623.11,1342.85z"/>
			<path class="st9" d="M672.8,1380.31l-11.87-5.2c-2.43-1.84-0.11-7.85,1.73-10.28l22.8-30.09c1.84-2.43,5.3-2.91,7.73-1.07
				l8.75,6.63c2.43,1.84,2.91,5.3,1.07,7.73l-22.8,30.09C678.36,1380.55,675.23,1382.15,672.8,1380.31z"/>
			<path class="st9" d="M711.37,1409.91l-7.75-5.99c-1.98-1.5-0.2-4.87,1.3-6.86l22.93-30.26c1.5-1.98,4.33-2.37,6.31-0.87
				l8.16,6.18c1.98,1.5,2.37,4.33,0.87,6.31l-22.93,30.26C718.02,1413.01,713.35,1411.41,711.37,1409.91z"/>
			<path class="st9" d="M741.16,1429.91l-6.72-3.77c-1.23-0.93,4.03-3.51,4.96-4.73l23.73-31.31c0.93-1.23,2.67-1.47,3.9-0.54
				l5.33,4.04c1.23,0.93,1.47,2.67,0.54,3.9l-23.73,31.32C748.23,1430.04,742.39,1430.84,741.16,1429.91z"/>
		</g>
	</g>
	<path class="st11" d="M763.12,1442.4l-4.36,1.65c-1.23-0.93-6.06-3.27-5.13-4.5l25.24-32.98c0.93-1.23,2.67-1.47,3.9-0.54l3.8,2.88
		c1.23,0.93,1.47,2.67,0.54,3.9l-21.31,28.12C764.86,1442.16,764.34,1443.33,763.12,1442.4z"/>
	<path class="st12" d="M828.4,1389.4c-9.02,18.01-25.99,24.4-29.94,25.77c-148.67-113.94-297.35-227.88-446.02-341.82
		c3.48-4.72,11.19-13.84,24.25-19.32c15.55-6.52,29.55-3.99,37.14-2.65c0.9,0.16,1.96,0.36,3.18,0.63c3.47,0.77,6.7,1.73,9.68,2.8
		c2.59,0.93,5,1.95,7.23,3.02c0.01,0.01,0.01,0.01,0.02,0.01c5.19,2.48,9.45,5.19,12.86,7.56c11.46,7.94,134.53,96.01,302.78,217.89
		c3.53-0.63,7.07-1.26,10.61-1.89c-2.21-5.15-4.28-11-2.65-12.13c0.27-0.19,0.62-0.23,1.06-0.13c0.35,0.08,0.75,0.25,1.2,0.51
		c3.52,1.97,10.3,9.08,20.85,19.33c27.32,26.52,34.25,29.7,43.2,45.09c7.3,12.55,8.74,20.81,9.1,23.12
		C833.64,1361.68,835.54,1375.13,828.4,1389.4z"/>
	<path class="st12" d="M923.14,1256.39c-10.58,15.3-25.89,20.24-30.32,21.6c-27.44,8.41-55.16-6.64-66.32-12.89
		c-10.92-6.12-22.16-12.59-33.68-19.32c-25.45-14.89-52.24-31.1-79.76-47.67l-0.05-0.04c-12.34-7.43-24.83-14.94-37.42-22.44
		c-14.89-8.88-29.91-17.74-44.98-26.44c-19.79-11.45-39.66-22.64-59.42-33.25l-0.04-0.03c-11.48-6.16-22.92-12.13-34.28-17.85
		c-10.44-5.25-20.81-10.29-31.08-15.06l-0.01-0.01c-7.21-3.35-14.37-6.57-21.47-9.64c-0.11-0.05-0.22-0.1-0.34-0.17h-0.01
		c-1.33-0.7-3.43-2.39-6-4.28l-0.72-0.52c-5.36-3.86-12.58-8.22-19.52-6.67c-0.36,0.07-0.71,0.17-1.07,0.28
		c-0.84,0.26-4.63,0.05-9.63-0.81l-0.01-0.01c-3.9-0.68-8.53-1.76-13.07-3.33c-0.01,0-0.01,0-0.02-0.01
		c-2.48-0.85-4.93-1.85-7.23-3.02c-4.95-2.5-9.17-5.75-11.34-9.88c-6.77-12.85-3.27-26-1.52-32.59
		c4.91-18.46,17.87-29.15,23.12-32.96c19.17-13.93,40.47-12.31,47.74-11.75c11.24,0.85,24.95,6.77,51.92,18.57
		c13.45,5.88,20.17,8.82,30.69,14.02c1.27,0.63,2.55,1.27,3.85,1.92h0.01c54.21,27.14,130.61,72.71,134.46,75
		c75.53,45.16,97.51,58.99,114.44,68.97s14.91,9.22,19.71,11.75c6.5,1.64,15.34,1.95,17.43-1.89c1.92-3.54-3.05-8.43-0.76-11.37
		c1.96-2.52,6.53-0.17,8.72-2.66c2.28-2.6-0.62-7.54-1.26-10.18c-0.19-0.73-0.2-1.28,0.12-1.56c0.38-0.34,1.16-0.23,2.28,0.25
		c8.75,3.84,37.84,31.31,51.15,54.32c3.47,5.98,6.44,12.5,6.44,12.5c4.5,9.85,7.82,17.12,8.72,25.39
		C934.45,1239.61,925.33,1253.22,923.14,1256.39z"/>
	<path class="st13" d="M1048.44,1077.78c-1.05,12.81-6.88,21.98-10.1,26.27c-10.73,14.26-25.7,18.48-30.32,19.7
		c-11.4,3.04-26.5,3.22-59.12-11.62c-23.22-10.56-40.81-22.05-49.98-28.55c-4.62-3.28-7.11-5.3-7.11-5.3
		c-1.19-0.96-2.38-1.92-3.56-2.86c-0.65-0.52-1.3-1.04-1.95-1.55c-1.03-0.82-2.06-1.63-3.08-2.42c-1.23-0.97-2.46-1.92-3.69-2.86
		c-6.81-5.23-13.64-10.23-20.57-15.1c-0.99-0.7-1.98-1.39-2.97-2.08c-1.21-0.84-2.43-1.68-3.65-2.52c-1.22-0.84-2.45-1.67-3.68-2.49
		c-1.22-0.83-2.46-1.66-3.69-2.48c-1.24-0.83-2.48-1.65-3.73-2.47c-1.25-0.82-2.5-1.63-3.75-2.45c-1.26-0.81-2.52-1.63-3.79-2.44
		c-4-2.57-8.07-5.12-12.2-7.68c-13.08-8.08-26.84-16.16-41.67-24.66c-0.78-0.44-1.57-0.89-2.35-1.34
		c-4.72-2.69-9.55-5.43-14.51-8.23c-1.12-0.64-2.25-1.28-3.4-1.92c-1.14-0.64-2.28-1.29-3.43-1.93c-3.45-1.95-6.97-3.93-10.55-5.93
		c-2.39-1.34-4.8-2.7-7.24-4.06c-1.22-0.69-2.45-1.38-3.68-2.07c-0.4-0.23-0.81-0.45-1.22-0.68c-0.82-0.46-1.66-0.93-2.51-1.4
		c-4.32-2.39-8.99-4.92-14.01-7.57c-1.39-0.73-2.81-1.48-4.26-2.23c-1.02-0.54-2.06-1.08-3.11-1.61c-1.42-0.74-2.87-1.48-4.34-2.22
		c-0.7-0.36-1.41-0.72-2.13-1.08c-0.32-0.16-0.65-0.33-0.98-0.49c-0.78-0.4-1.57-0.79-2.37-1.19c-0.26-0.13-0.53-0.26-0.8-0.4
		c-0.65-0.32-1.3-0.64-1.95-0.96c-3.68-1.81-7.5-3.66-11.45-5.54c-10.17-4.82-21.22-9.8-33.13-14.83c-0.99-0.42-1.99-0.84-2.99-1.26
		c-3.01-1.26-6.08-2.52-9.2-3.79h-0.01c-3.34-1.35-6.74-2.7-10.2-4.05c-1.48-0.58-2.97-1.15-4.47-1.73c0.29,0.29,3.2,3.26,2.52,7.58
		c-0.46,2.9-2.42,5.67-5.05,6.57c-4.3,1.48-8.83-2.55-9.6-1.52c-0.76,1.02,4.18,4.24,4.04,9.1c-0.05,1.77-0.78,4.36-2.52,5.05
		c-3.12,1.24-7.43-4.42-8.59-3.54c-1.28,0.98,4.06,7.72,2.02,10.62c-0.66,0.93-1.88,1.18-3.3,1.18c-0.33,0-0.68-0.01-1.03-0.04
		c-0.13-0.01-0.27-0.02-0.41-0.03c-0.32-0.02-0.64-0.05-0.97-0.08l-0.01-0.01c-0.24-0.02-0.48-0.05-0.71-0.07s-0.47-0.04-0.71-0.06
		c-0.17-0.01-0.35-0.02-0.52-0.03c-1.74-0.1-3.27,0.04-3.96,1.16c-1.68,2.69,2.27,9.81,2.96,10.5c0.01,0.01,0.05,0.05,0.07,0.11
		c0.19,0.68-2.89,2.75-5.56,3.03c-4.02,0.42-6.37-3.3-7.58-2.53c-1.89,1.22,3.29,10.75,2.02,11.62c-1.43,1-11.2-8.99-24.25-26.78
		c-12.37-16.86-20.44-27.86-27.79-44.96c-8.49-19.76-13.6-31.65-11.12-47.5c3.51-22.36,19.53-35.93,23.75-39.41
		c23.96-19.7,53.29-16.06,63.16-14.15c5.21,1.01,8.63,2.24,16.17,5.06c34.86,13,52.29,19.5,66.19,25.76
		c44.31,19.97,83.88,43.86,127.32,70.24c28.47,17.28,28.55,18.09,57.1,35.36c39.13,23.67,71.59,41.86,92.97,53.56
		c0.71-2.09,1.54-4.29,2.52-6.57c1.91-4.42,4.01-8.3,6.07-11.62c15.64,14.64,26.67,24.97,38.9,36.38
		c9.97,9.31,16.35,15.24,21.73,25.77C1044.46,1053.52,1049.58,1063.88,1048.44,1077.78z"/>
	<path class="st14" d="M1163.64,932.26c-2.97,15.64-13.22,25.43-17.18,28.8c-15.11,12.85-35.17,14.79-50.02,10.61
		c-9.48-2.67-14.22-7.08-24.25-14.65c-6-4.52,4.51,3.7-53.05-33.35c-13.67-8.8-26.11-16.91-37.5-24.41l-2.15-1.42l-3.43-2.26
		l-6.47-4.27c-57.78-38.31-87.14-59.7-119.72-77.79c-22.24-12.35-55.12-29.09-97.68-45.27l-0.01-0.01
		c-1.94-0.74-3.91-1.47-5.89-2.21c0.5,3.82,0.81,7.08,1.01,9.6c0.07,0.91,0.13,1.68,0.17,2.34c0.15,2.69-0.02,3.56-0.67,4.23
		c-2.1,2.18-6.4-0.49-8.09,1.51c-0.85,1.01-0.47,2.54-0.07,4.01c0.4,1.46,0.82,2.85,0.07,3.57c-1.69,1.64-6.8-2.56-8.58-1.01
		c-2.11,1.84,3.27,9.22,1.01,11.62c-2.27,2.4-9.87-2.64-11.63-0.5c-1.16,1.41,1.23,4.74,2.56,7.63c0.74,1.59,1.16,3.05,0.48,3.99
		c-0.38,0.52-1.02,0.77-1.82,0.85c-3.35,0.32-9.48-2.34-10.82-0.35c-1.73,2.6,6.57,10.2,5.06,12.13c-0.41,0.52-1.38,0.41-2.61,0.03
		c-2.96-0.89-7.46-3.24-9.52-1.55c-2.1,1.73-0.75,6.95,1.01,11.62h-7.07c-18.29-19.57-29.81-38.18-36.89-51.53
		c-10.83-20.44-18.16-34.7-17.68-54.57c0.18-7.23,0.9-26.11,14.15-42.95c18.87-23.97,48.93-25.73,58.1-26.27
		c9.85-0.58,19.01,0.49,37.9,5.56c18.24,4.89,34.61,10.58,50.63,17.09c14.2,5.78,28.13,12.19,42.84,19.29
		c25.18,12.13,45.51,22.76,57.32,29.07l0.05,0.03c3.94,2.1,6.92,3.72,8.82,4.75c26.38,14.33,55.6,31.09,86.91,50.52
		c2.52-0.5,5.94-1.49,9.6-3.53c5.8-3.24,9.31-7.52,11.11-10.11c45.81,40.76,91.62,81.52,137.43,122.28
		c1.58,2.82,3.56,6.92,5.06,12.12C1163.15,911.09,1165.82,920.78,1163.64,932.26z"/>
	<path class="st15" d="M1276.31,791.8c-7.65,17.13-22.29,24.19-26.77,26.27c-3.22,1.49-18.77,8.33-36.89,3.54
		c-10.03-2.66-16.67-7.77-19.7-10.11c-46.31-35.67-57.37-43.52-60.64-46.48c-13.93-12.64-34.22-25.2-70.96-46.81
		c-6.47-3.81-13.45-7.89-20.99-12.31c-8.65-5.06-30.86-17.02-75.29-40.92c-0.9-0.48-1.78-0.96-2.66-1.43
		c-56.2-30.23-74.84-39.84-77.17-36.47c-1.01,1.46,1.49,5.04,17.18,23.24c14.19,16.47,26.37,30.04,35.37,39.92l-34.46,41.29
		l-0.13-0.06l-0.05-0.03L803,683.1l-0.01-0.02l-2.63-6.99c-14.56-16.87-23.21-32.82-28.3-43.96c-7.76-16.98-14.84-32.49-13.64-53.55
		c0.46-8.12,1.73-25.95,14.65-42.45c11.54-14.72,26.11-20.4,32.34-22.73c9.02-3.39,19.74-5.52,39.41-4.55
		c26.53,1.3,48.11,7.19,58.51,10.52l0.03,0.01c3.07,0.98,5.17,1.74,6.13,2.1c51.78,19.1,99.09,43.89,119.75,55.08
		c2.15,1.16,4.01,2.18,5.56,3.03c16.32,8.95,51.48,28.55,94.26,55.71c6.8,4.31,13.8,8.82,20.94,13.51
		c34.82,22.85,24.8,18.21,55.07,37.89c22.03,14.32,36.62,22.81,53.06,40.42c8.75,9.38,14.89,18,18.69,23.75
		C1278.19,754.27,1285.04,772.28,1276.31,791.8z"/>
	<path class="st15" d="M1392.53,624.05c-0.61,5.28-2.93,22.96-18.19,35.87c-13.27,11.23-28.18,11.98-32.34,12.13
		c-4.18,0.15-12.88-0.04-29.31-7.07c-17.84-7.65-29.07-16.63-40.92-25.77c-28.98-22.35-17.97-11.93-48-35.37
		c-28.04-21.88-35.97-29.66-45.15-37.37c-4.42-3.72-9.12-7.42-16.49-12.65c-21.56-15.33-38.74-24.55-62.66-37.39
		c-4-2.15-9.12-4.65-15.83-7.81c-12.3-5.81-29.95-13.85-55.91-26.04c-25.06-11.77-38.86-18.16-41.44-14.66
		c-2.17,2.96,4.56,11.46,21.22,31.33c16.89,20.14,31.29,36.81,41.94,49.01l-20.21,28.3c-20.66-11.19-67.97-35.98-119.75-55.08
		c-0.96-0.36-3.06-1.12-6.13-2.1l-0.03-0.01l-3.44-4.46c-9.45-12.28-26.31-38.14-27.28-72.76c-0.29-10.34-0.53-24.99,7.58-40.92
		c10.64-20.91,28.75-30.47,36.38-34.36c18.12-9.24,34.47-9.81,46.99-10.1c6.26-0.15,12.15,0.1,17.69,0.64h0.01l37.31,14.22l136.4,52
		l0.04,0.01c17.8,10.04,39.25,23.15,73.81,44.28c6.06,3.71,12.03,7.38,17.97,11.1c18.69,11.68,37.16,23.73,57.82,38.42
		c10.98,7.8,0.07,0.35,44.97,34.86c19.08,14.67,25.82,19.68,32.33,30.32C1385.95,589.2,1394.82,604.16,1392.53,624.05z"/>
	<path class="st16" d="M909.49,521.48c51.78,19.1,99.09,43.89,119.75,55.08l-125.88-57.18
		C906.43,520.36,908.53,521.12,909.49,521.48z"/>
	<path class="st16" d="M1154.97,423.63l-173.71-66.22c17.31,1.65,31.12,6.03,41.41,9.46c67.08,22.36,116.21,48,116.21,48
		C1144.08,417.59,1149.34,420.45,1154.97,423.63z"/>
	<path class="st17" d="M1255.27,464.61l-8.48,14.41c-5.94-3.72-11.91-7.39-17.97-11.1c-34.56-21.13-56.01-34.24-73.81-44.28
		l-2.19-1.9l15.57-19.39c2.75,1.76,4.65,2.98,5.35,3.42C1191.13,416.63,1214.82,434.07,1255.27,464.61z"/>
	<path class="st17" d="M1378.19,442.91c-0.31,6.22-3.56,10.52-4.93,12.13l-2.6,4.09l-334.17-219.91l-0.01-0.01l3.31-3.96
		c13.89-2.87,24.92-2.21,32.21-1.14c4.17,0.62,7.46,1.42,10.99,2.28c9.51,2.31,18.25,5.28,28.42,9.47
		c18.85,7.78,34.04,15.37,43.56,20.42c7.07,3.75,11.01,6.11,11.01,6.11c30.57,17.86,59.32,37.46,85.05,56.45
		c59.65,44.03,103.02,84.79,115.03,92.85c0.89,0.6,4.8,3.16,7.96,7.96C1375.58,432.02,1378.5,436.6,1378.19,442.91z"/>
	<path class="st14" d="M1439.01,573.52c-5.42,14.33-29.77,16.05-31.84,16.17c-7.95,0.47-34.93-24.6-48-38.91
		c-21.56-23.6-40.1-37.84-64.16-56.08c-14.83-11.24-27.99-21.22-39.74-30.09c-40.45-30.54-64.14-47.98-81.53-58.84
		c-0.7-0.44-2.6-1.66-5.35-3.42c-16.77-10.77-65.24-41.7-67.91-38.01c-0.77,1.06,2.58,4.51,15.16,18.19
		c12.97,14.13,23.29,25.58,29.81,32.84l7.37,6.37l2.19,1.9l-0.04-0.01l-0.03-0.02l-0.02-0.01h-0.01l-136.34-51.97l-37.31-14.22
		h-0.01l-0.02-0.01l-3.02-4.68c-4.23-6.06-10.53-16.71-13.65-31.32c-1.39-6.54-4.05-19.72,0-35.37c1.51-5.81,7.05-27.51,27.79-39.92
		c0,0,11.74-7.11,27.29-8.08c66.3-4.17,229.39,119.24,229.39,119.24c87.21,65.99,116.95,93.13,147.53,131.87
		c18.65,23.62,32.29,44.81,41.44,60.13c0.72,2.15,1.59,5.26,2.02,9.09C1440.3,560.88,1441.09,568.02,1439.01,573.52z"/>
	<path class="st18" d="M774.59,1245.78l2.65,11.36h-9.11v12.51h-8.33c-0.45-0.26-0.85-0.43-1.2-0.51c-0.44-0.1-0.79-0.06-1.06,0.13
		c-1.63,1.13,0.44,6.98,2.65,12.13c-3.54,0.63-7.08,1.26-10.61,1.89c-168.25-121.88-291.32-209.95-302.78-217.89
		c-3.41-2.37-7.67-5.08-12.86-7.56c10.39,3.59,21.21,4.62,22.71,4.15c11.31-3.56,23.7,9.65,27.66,11.36
		c101,43.69,213.93,117.09,308.51,172.43H774.59z"/>
	<line class="st19" x1="758.27" y1="1281.74" x2="447.01" y2="1061.17"/>
	<line class="st19" x1="756.65" y1="1275.08" x2="457.71" y2="1061.71"/>
	<line class="st19" x1="758.6" y1="1269.14" x2="476.8" y2="1068.07"/>
	<line class="st19" x1="768.13" y1="1268.26" x2="505.78" y2="1082.99"/>
	<line class="st19" x1="768.13" y1="1258.16" x2="536.87" y2="1098.06"/>
	<line class="st19" x1="774.59" y1="1257.14" x2="571.15" y2="1115.92"/>
	<line class="st19" x1="775.35" y1="1253.86" x2="630.53" y2="1149.14"/>
	<line class="st19" x1="774.08" y1="1244.52" x2="675.59" y2="1175.63"/>
	<line class="st19" x1="782.67" y1="1245.78" x2="713.01" y2="1198.08"/>
	<path class="st19" d="M863.9,1131.79v-0.03l0.12-1.56c0.7,0.03,1.47,0.13,2.28,0.25"/>
	<path class="st18" d="M903.33,1095.97c-2.02,2.45-11.67-4.68-13.54-2.53c-1.77,2.04,5.67,9.44,3.54,12.63
		c-2.1,3.13-11.21-1.05-13.14,2.02c-1.81,2.89,4.7,9.02,3.03,11.12c-1.66,2.08-9.08-2.68-11.12-0.51c-1.5,1.6,0.69,6.17,3.04,10.11
		c0.9,3.8-4.45,2.31-8.84,1.64c-1.12-0.48-1.9-0.59-2.28-0.25c-0.32,0.28-0.31,0.83-0.12,1.56c0.64,2.64,3.54,7.58,1.26,10.18
		c-2.19,2.49-6.76,0.14-8.72,2.66c-2.29,2.94,2.68,7.83,0.76,11.37c-2.09,3.84-10.93,3.53-17.43,1.89
		c-4.8-2.53-2.78-1.77-19.71-11.75s-38.91-23.81-114.44-68.97c-3.85-2.29-80.25-47.86-134.46-75l12.44-2.17l-3.03-10.11h9.6
		l-1.52-3.54c1.27-0.87-3.91-10.4-2.02-11.62c1.21-0.77,3.56,2.95,7.58,2.53c2.67-0.28,5.75-2.35,5.56-3.03
		c-0.02-0.06-0.06-0.1-0.07-0.11c-0.69-0.69-4.64-7.81-2.96-10.5c1.84-2.96,9.54,0.92,11.62-2.02c2.04-2.9-3.3-9.64-2.02-10.62
		c1.16-0.88,5.47,4.78,8.59,3.54c1.74-0.69,2.47-3.28,2.52-5.05c0.14-4.86-4.8-8.08-4.04-9.1c0.77-1.03,5.3,3,9.6,1.52
		c2.63-0.9,4.59-3.67,5.05-6.57c0.68-4.32-2.23-7.29-2.52-7.58c48.02,18.42,84.81,37.4,109.13,51.03
		c66.35,37.2,111.31,62.4,157.14,99.54c0,0,2.49,2.02,7.11,5.3C904.06,1087.9,905.15,1093.75,903.33,1095.97z"/>
	<line class="st19" x1="571.16" y1="1002.14" x2="571.15" y2="1002.14"/>
	<line class="st19" x1="698.74" y1="955.38" x2="902.04" y2="1091.41"/>
	<line class="st19" x1="629.55" y1="934.59" x2="883.16" y2="1101.4"/>
	<line class="st19" x1="619.86" y1="947.78" x2="876.39" y2="1113.72"/>
	<line class="st19" x1="604.27" y1="952.73" x2="874.23" y2="1121.96"/>
	<line class="st19" x1="605.61" y1="959.17" x2="866.99" y2="1131.97"/>
	<line class="st19" x1="604.26" y1="971.8" x2="861.9" y2="1138.95"/>
	<line class="st19" x1="600.97" y1="974.58" x2="856.17" y2="1154.11"/>
	<line class="st19" x1="594.4" y1="985.44" x2="828.87" y2="1145.15"/>
	<line class="st19" x1="586.57" y1="995.55" x2="677.01" y2="1053.42"/>
	<line class="st19" x1="631.79" y1="926.08" x2="896.3" y2="1101.65"/>
	<line class="st19" x1="678.38" y1="944.24" x2="895.08" y2="1095.68"/>
	<path class="st13" d="M588.74,988.39"/>
	<line class="st19" x1="583.6" y1="999.97" x2="690.61" y2="1068.27"/>
	<line class="st19" x1="590.17" y1="989.86" x2="764.39" y2="1112.45"/>
	<line class="st19" x1="594.21" y1="977.23" x2="849.94" y2="1158.98"/>
	<line class="st19" x1="599.77" y1="974.2" x2="856.03" y2="1148.01"/>
	<line class="st19" x1="602.64" y1="962.59" x2="860.06" y2="1143.28"/>
	<line class="st19" x1="608.36" y1="961.57" x2="865.1" y2="1135.23"/>
	<line class="st19" x1="614.93" y1="954.49" x2="875.14" y2="1128.81"/>
	<line class="st19" x1="617.45" y1="949.44" x2="874.57" y2="1118.17"/>
	<line class="st19" x1="623.01" y1="941.86" x2="881.34" y2="1113.39"/>
	<line class="st19" x1="627.6" y1="938.83" x2="885.14" y2="1106.96"/>
	<line class="st19" x1="640.21" y1="933.49" x2="889.78" y2="1107.31"/>
	<line class="st19" x1="685.54" y1="953.38" x2="892.42" y2="1100.69"/>
	<line class="st19" x1="762.97" y1="994.65" x2="893.9" y2="1093.77"/>
	<line class="st19" x1="833.7" y1="1036.56" x2="903.33" y2="1093.44"/>
	<path class="st20" d="M1002.71,958.72h-6.44c0.44,2.02,0.89,4.05,1.33,6.07c-0.14,0.44-1.09,3.36-4.17,4.73
		c-2.7,1.21-5.16,0.38-5.68,0.19c0.45,0.68,1.68,2.71,1.51,5.5c-0.24,3.83-2.95,6.07-3.41,6.44c-2.15-0.06-4.29-0.13-6.44-0.19
		l1.33,3.85c-2.06,3.32-4.16,7.2-6.07,11.62c-0.98,2.28-1.81,4.48-2.52,6.57c-21.38-11.7-53.84-29.89-92.97-53.56
		c-28.55-17.27-28.63-18.08-57.1-35.36c-43.44-26.38-83.01-50.27-127.32-70.24l1.95-0.69c-0.27-0.36-0.95-1.35-1.01-2.78
		c-0.01-0.22,0-0.42,0.02-0.62l0.3-1.28l0.01-0.02c0.3-0.79,0.72-1.32,0.87-1.49l-0.12-1.71h7.07c-1.76-4.67-3.11-9.89-1.01-11.62
		c2.91-2.39,10.72,3.31,12.13,1.52c1.51-1.93-6.79-9.53-5.06-12.13c1.66-2.47,10.67,2.21,12.64-0.5c1.9-2.64-4.84-9.43-3.04-11.62
		c1.76-2.14,9.36,2.9,11.63,0.5c2.26-2.4-3.12-9.78-1.01-11.62c1.78-1.55,6.89,2.65,8.58,1.01c1.51-1.45-1.69-5.56,0-7.58
		c1.69-2,5.99,0.67,8.09-1.51c0.81-0.84,0.88-1.98,0.5-6.57c-0.2-2.52-0.51-5.78-1.01-9.6c45.43,16.86,80.32,34.58,103.58,47.49
		c32.58,18.09,61.94,39.48,119.72,77.79l6.47,4.27c1.13,0.75,2.27,1.5,3.43,2.26l2.15,1.42l-2.8,3.76
		c-0.19,2.59-0.38,5.18-0.57,7.77c8.21,9.03,16.42,18.06,24.63,27.09c0.32,0.76,0.64,1.52,0.95,2.27L1002.71,958.72z"/>
	<line class="st21" x1="979.49" y1="897.84" x2="976.06" y2="895.58"/>
	<path class="st13" d="M696.02,838.97l-0.3,1.28C695.76,839.77,695.88,839.34,696.02,838.97z"/>
	<path class="st13" d="M696.71,843.65l-1.95,0.69l0.96-4.09c-0.02,0.2-0.03,0.4-0.02,0.62C695.76,842.3,696.44,843.29,696.71,843.65
		z"/>
	<path class="st13" d="M696.9,837.46c-0.15,0.17-0.57,0.7-0.87,1.49l0.75-3.2L696.9,837.46z"/>
	<line class="st21" x1="703.85" y1="835.75" x2="933.78" y2="982.04"/>
	<line class="st21" x1="712.36" y1="825.69" x2="940.9" y2="986.1"/>
	<line class="st21" x1="713.87" y1="820.93" x2="974.67" y2="996.93"/>
	<line class="st21" x1="720.73" y1="813.87" x2="977.77" y2="990.48"/>
	<line class="st21" x1="722.07" y1="809.03" x2="979.41" y2="981.46"/>
	<line class="st21" x1="731.14" y1="801.9" x2="984.11" y2="981.6"/>
	<line class="st21" x1="731.35" y1="797.57" x2="989.26" y2="975.21"/>
	<line class="st21" x1="739.72" y1="793.69" x2="987.75" y2="969.71"/>
	<line class="st21" x1="738.64" y1="787.73" x2="996.28" y2="967.27"/>
	<line class="st21" x1="747.68" y1="784.98" x2="996.27" y2="958.72"/>
	<line class="st21" x1="747.47" y1="777.98" x2="1003.09" y2="952.5"/>
	<line class="st21" x1="752.18" y1="768.25" x2="1003.85" y2="945.27"/>
	<line class="st21" x1="807.94" y1="793.69" x2="978.27" y2="910.79"/>
	<path class="st22" d="M1061.35,718.21l-41.71,54.89c-1.8,2.59-5.29,5.75-9.97,11.63s-2.25,8.4-10.74,2.01
		c0,0-60.53-36.19-86.91-50.52c-1.9-1.03-4.88-2.65-8.82-4.75l0.13,0.06l34.46-41.29l6.06-4.04l16.17-18.19l2.39-4.46
		c0.88,0.47,1.76,0.95,2.66,1.43c44.43,23.9,66.64,35.86,75.29,40.92C1047.9,710.32,1054.88,714.4,1061.35,718.21z"/>
	<polygon class="st15" points="962.41,663.55 960.02,668.01 943.85,686.2 937.79,690.24 	"/>
	<polyline class="st15" points="1019.64,773.1 1022.67,770.07 1058.04,723.08 1061.35,718.22 	"/>
	<polygon class="st23" points="1083.64,508.62 1057.54,540.68 1049.45,548.26 	"/>
	<path class="st23" d="M1129.06,635.3"/>
	<path class="st22" d="M1178.62,566.47l-2.85,3.01l-46.71,65.82c-42.78-27.16-77.94-46.76-94.26-55.71
		c-1.55-0.85-3.41-1.87-5.56-3.03l20.21-28.3l8.09-7.58l26.1-32.06c6.71,3.16,11.83,5.66,15.83,7.81
		c23.92,12.84,41.1,22.06,62.66,37.39C1169.5,559.05,1174.2,562.75,1178.62,566.47z"/>
	<polygon class="st22" points="1178.62,566.47 1129.06,635.3 1175.77,569.48 	"/>
	<path class="st14" d="M1388.3,589.7"/>
	<polyline class="st14" points="1152.82,421.75 1154.97,418.79 1165.35,405.91 1168.39,402.35 	"/>
	<polyline class="st14" points="1255.27,464.62 1254.02,467.04 1248.21,476.64 1246.79,479.02 	"/>
	<path class="st24" d="M1445.26,166.66c-1.21-0.21-2.6-0.42-4.15-0.61c-7.06-0.84-17.4-1.07-29.19,2.13
		c-17.1,4.63-28.24,14.02-33.35,18.94L1252,325.06l-0.97,3.78c-25.73-18.99-54.48-38.59-85.05-56.45c0,0-3.94-2.36-11.01-6.11
		l4.57-7.16c31.58-35.36,63.16-70.73,94.73-106.1c0.73-0.91,1.53-1.88,2.42-2.9c0.04-0.04,0.08-0.09,0.11-0.13
		c0.24-0.27,0.48-0.53,0.72-0.8c3.59-3.4,7.2-6.82,10.79-10.22c0.01-0.01,0.01-0.01,0.02-0.02c3.4-2.71,7.29-5.41,11.71-7.91
		c5.08-2.86,16.07-8.92,31.83-10.61c10.86-1.17,19.88,0.18,25.77,1.52C1373.52,136.85,1409.39,151.76,1445.26,166.66z"/>
	<path class="st25" d="M1497.44,196.87c-0.84-0.7-1.7-1.37-2.58-1.99c-31.39-22.14-88.82,8.25-115.47,61.14
		c-27.35,54.26-23.45,106.64,7.79,131.82c0.85,0.69,1.73,1.33,2.64,1.94c30.79,20.58,88.2-8.57,115.41-61.1
		C1532.04,276.93,1525.97,220.85,1497.44,196.87z M1480,314.11c-18.65,32.31-51.41,49.98-74,35.27
		c-19.05-12.42-21.37-49.71-6.46-81.72c15.75-33.81,51.78-48.09,74-35.26C1495.76,245.23,1498.65,281.81,1480,314.11z"/>
	<path class="st26" d="M1473.54,232.4c-22.22-12.83-58.25,1.45-74,35.26c-14.91,32.01-12.59,69.3,6.46,81.72
		c22.59,14.71,55.35-2.96,74-35.27C1498.65,281.81,1495.76,245.23,1473.54,232.4z M1463.85,305.6
		c-12.63,21.88-33.57,33.44-46.77,25.82c-13.19-7.62-13.65-31.53-1.02-53.41c12.64-21.89,33.58-33.45,46.77-25.83
		C1476.03,259.8,1476.49,283.71,1463.85,305.6z"/>
	<path class="st27" d="M1463.85,305.6c-12.63,21.88-33.57,33.44-46.77,25.82c-13.19-7.62-13.65-31.53-1.02-53.41
		c12.64-21.89,33.58-33.45,46.77-25.83C1476.03,259.8,1476.49,283.71,1463.85,305.6z"/>
	<path class="st28" d="M1337.64,121.95c-5.89-1.34-14.91-2.69-25.77-1.52c-15.76,1.69-26.75,7.75-31.83,10.61
		c-4.42,2.5-8.31,5.2-11.71,7.91c-0.01,0.01-0.01,0.01-0.02,0.02c-4.77,3.81-8.57,7.66-11.51,11.02c-0.03,0.04-0.07,0.09-0.11,0.13
		c-25.37,28.37-50.75,56.75-76.12,85.13l0.95-7.2c1.99-19.65,7.03-35.23,11.36-45.85c2.85-6.99,7.93-19.21,18.19-32.97
		c14.13-18.94,29.19-28.88,32.59-31.07c8.95-5.76,17.87-11.37,31.08-13.27c11.42-1.64,20.99,0.22,26.9,1.9
		c10.87,3.41,21.73,6.82,32.59,10.23L1337.64,121.95z"/>
	<path class="st29" d="M1494.86,194.88c-31.39-22.14-88.82,8.25-115.47,61.14c-27.35,54.26-23.45,106.64,7.79,131.82
		c0.85,0.69,1.73,1.33,2.64,1.94l-45.17-21.14c-3.51-5.69-7.65-13.51-10.99-23.31c-0.88-2.58-3.93-11.85-5.49-24.82
		c-3.02-25.18,1.97-44.71,3.03-48.69c2.99-11.2,6.72-18.69,13.45-32.21c6.2-12.45,10.53-21.14,18.19-30.89
		c5.27-6.69,15.67-19.66,33.35-29.17c21.83-11.75,43.06-11.94,54-11.18c12.82,6.38,25.64,12.75,38.46,19.13L1494.86,194.88z"/>
	<polyline class="st29" points="1413.81,396.43 1412.3,399.15 1373.27,458.27 1371.78,460.31 	"/>
	<line class="st19" x1="1452.66" y1="169.6" x2="1444.59" y2="166.55"/>
	<path class="st30" d="M1372.63,459.13"/>
</g>
</svg>
