<svg xmlns="http://www.w3.org/2000/svg" viewBox="0 0 411.99 285.36"><defs><style>.cls-1,.cls-2{fill:none;stroke:#000;stroke-miterlimit:10;}.cls-1{stroke-width:6px;}.cls-2{stroke-width:4px;}</style></defs><title>CascadeVelo</title><g id="Layer_2" data-name="Layer 2"><g id="Layer_1-2" data-name="Layer 1"><ellipse class="cls-1" cx="146.32" cy="141.46" rx="56" ry="46.5" transform="translate(-54.68 173.41) rotate(-53.06)"/><ellipse class="cls-1" cx="271.67" cy="201.54" rx="56" ry="46.5" transform="translate(-52.67 297.58) rotate(-53.06)"/><path d="M87.5,127.5A102.63,102.63,0,0,1,89,109.59C40.42,87,2.22,73.05.09,77.44c-2.23,4.6,36,27.81,87.46,53.38C87.52,129.73,87.5,128.62,87.5,127.5Z"/><path d="M321.43,229.68c0,1.26.07,2.53.07,3.82A102.82,102.82,0,0,1,320,251c50,23.35,89.69,38,91.86,33.52C414.17,279.87,374.39,255.85,321.43,229.68Z"/><polygon points="298.5 54 298.5 15 324.5 0 339.5 0 347.5 10 351.5 27 354.5 41 349.5 54 333.5 67 320.5 72 305.5 68 298.5 54"/><polygon points="191.5 72 196.5 93 208.5 104 217.5 117 210.5 131 204.5 157 193.5 192 208.5 179 220.5 148 230.5 131 230.5 116 219.5 85 207.5 67 192.5 67 191.5 72"/><polygon points="241.5 77 248.5 95 248.5 104 248.5 122 242.5 141 238.5 147 257.5 135 265.5 122 265.5 104 254.5 77 250.5 67 242.5 64 230.5 67 241.5 77"/><polygon points="278.5 31 248.5 36 230.5 48 238.5 59 254.5 59 271.5 45 278.5 31"/><polygon points="294.5 67 286.5 83 286.5 96 294.5 109 312.5 122 326.5 129 338.5 134 345.5 129 335.5 117 326.5 100 312.5 82 294.5 67"/><path class="cls-2" d="M260.5,144c0-3.32,37.57-6,84-6"/></g></g></svg>