<svg xmlns="http://www.w3.org/2000/svg" viewBox="0 0 151 132"><defs><style>.cls-1{fill:#7cd900;}.cls-2{fill:#fff;}.cls-3{font-size:12px;font-family:ForteMT, Forte;}</style></defs><title>King</title><g id="Layer_2" data-name="Layer 2"><g id="Layer_1-2" data-name="Layer 1"><path class="cls-1" d="M151,56.5a75.5,75.5,0,0,1-151,0C0,14.8,34.3,0,76,0S151,14.8,151,56.5Z"/><path class="cls-2" d="M75,56A10,10,0,1,0,85,66,10,10,0,0,0,75,56Zm0,16a7,7,0,1,1,7-7A7,7,0,0,1,75,72Z"/><path class="cls-2" d="M75,78a9.86,9.86,0,0,1-3.82-.76A8.4,8.4,0,0,0,71,79c0,3.31,1.79,6,4,6s4-2.69,4-6a8.4,8.4,0,0,0-.18-1.76A9.86,9.86,0,0,1,75,78Z"/><path class="cls-2" d="M81,77s1,6-1,7,4,2,8-1,7-2,14-18c0,0,5-18,21-13a10.82,10.82,0,0,1,7,3c3,3,6-2,6-2s-8-11-20-8-12,6-18,19S92,79,88,79A13.83,13.83,0,0,1,81,77Z"/><path class="cls-2" d="M68.6,77s-1,6,1,7-4,2-8-1-7-2-14-18c0,0-5-18-21-13a10.82,10.82,0,0,0-7,3c-3,3-6-2-6-2s8-11,20-8,12,6,18,19,6,15,10,15A13.83,13.83,0,0,0,68.6,77Z"/><text class="cls-3" transform="translate(39.43 95.28)">Bike Brussels<tspan x="0" y="14.4" xml:space="preserve">       King</tspan></text></g></g></svg>