<?xml version="1.0" encoding="utf-8"?>
<!-- Generator: Adobe Illustrator 23.0.3, SVG Export Plug-In . SVG Version: 6.00 Build 0)  -->
<svg version="1.1" id="Layer_1" xmlns="http://www.w3.org/2000/svg" xmlns:xlink="http://www.w3.org/1999/xlink" x="0px" y="0px"
	 viewBox="0 0 170.1 153.1" style="enable-background:new 0 0 170.1 153.1;" xml:space="preserve">
<style type="text/css">
	.st0{fill:#231F20;}
	.st1{fill:#231F20;stroke:#FFFFFF;stroke-width:0.6815;stroke-miterlimit:10;}
	.st2{fill:#231F20;stroke:#FFFFFF;stroke-width:0.8172;stroke-miterlimit:10;}
	.st3{fill:#231F20;stroke:#FFFFFF;stroke-width:0.4865;stroke-miterlimit:10;}
	.st4{fill:#231F20;stroke:#FFFFFF;stroke-width:0.5257;stroke-miterlimit:10;}
</style>
<g>
	<path class="st0" d="M82.4,125.7L82.4,125.7L84.2,4.9c-0.1-1.9,1.5-3.5,3.4-3.8l0,0c13.9,0,23.5,0.2,28.7,0.6s10.6,1.4,16.1,2.9
		c5.9,1.7,11.4,4.1,16.5,7.2c5.1,3.2,9.1,6.6,11.9,10.4c4.4,5.9,6.6,12.5,6.6,19.8c0,6.6-1.9,12.5-5.5,17.8
		c-3.7,5.3-8.7,9.2-15,11.7c5,3.2,8.7,6.6,11.1,10.4c2.4,3.7,3.7,7.8,3.7,12.1c0,7-3.1,13.4-9.3,19.3c-7.6,7.3-18.9,11.2-34.1,11.8
		 M95.2,119.7c0,0.9,0.8,1.7,1.7,1.7h6.8c10.3,0,19.3-2.2,25.1-3.2c5.7-1,10.5-2.7,14.3-5.2c7.9-5.1,11.9-11.6,11.9-19.4
		c0-4-1.4-7.6-4.1-11c-2.7-3.3-6.8-6.3-12.3-9c-3,0.6-5.7,0.8-8.3,0.8c-5.5,0-9.9-0.8-13.2-2.4c-3.3-1.6-5-3.7-5-6.2
		c0-1.4,0.6-2.1,1.7-2.1c0.8,0,2,0.3,3.4,0.9c4.8,2.2,10,3.2,15.6,3.2c10.2,0,17.9-3.5,23.1-10.6c3.3-4.5,5-9.6,5-15.3
		c0-8.7-3.8-16.2-11.5-22.5c-5.5-4.5-12-7.8-19.6-9.8s-17.1-3.1-28.5-3.1h-1.8l0,0c-2.6,0-4.3,1.7-4.3,4.3l0,0"/>
</g>
<g>
	<path class="st0" d="M76.7,1.2c2.3-0.1,4.2,1.8,4.2,4.1c-0.1,16.7-0.4,51-0.5,56.7c0,0.5,0,0.8,0,0.8L79,121.4v4.3h-4.3h-6.3
		c-1.2,0-2.2-1-2.2-2.2v-6.3l0.1-17.6l0,0c0-1.5-1.7-2.3-2.8-1.4c-10.5,8.3-19.9,14.4-28.2,18.5c-10.8,5.3-19.2,7.9-25.1,7.8
		c-2.6-0.1-3.9-1.1-3.8-3.1c0-1.4,0.9-2.3,2.7-2.7c7.3-1.4,14.1-3.5,20.4-6.1c4.8-2,9.4-4.4,13.7-7.1c1.4-0.8,0.9-2.9-0.7-3.2
		c-14.7-2.2-25.8-9.7-33.4-22.5C4,71,1.5,61.7,1.6,51.8c0.2-9.2,2.7-18,7.7-26.3c5.4-8.9,12.6-15.3,21.6-19.1
		C36.4,4.1,43,2,50.9,1.8L76.7,1.2z M65.3,88.4c0.3-0.3,0.5-0.7,0.5-1.2l0.1-3.5l0.3-16.3L66.6,13c0-3.3-2.7-6-6-5.9
		c-10.5,0.3-19,1.5-25.2,3.6c-7.4,2.5-13.7,6.9-18.7,13.2c-6.6,8.2-10,17.5-10.2,28c-0.1,6.2,1,12.3,3.5,18.3
		c2.6,6.5,6.4,12,11.4,16.4c7.9,7.1,17.7,10.7,29.3,10.9l3.5,0c0.4,0,0.8-0.1,1.1-0.3C58.6,94.4,62,91.5,65.3,88.4z"/>
</g>
<path class="st0" d="M100.1,142.7c0.6,0.4,1.1,0.9,1.4,1.5c0.3,0.5,0.5,1.1,0.5,1.7c0,1-0.4,1.9-1.2,2.7c-0.9,1-2.4,1.6-4.3,1.7
	c-1.1,0.1-0.2,0.1-2.2,0.1h-3.4l0-0.6l0-2.5l0-4.9l-0.1-5.4l0-4.2h1.7c1.8,0,3,0,3.6,0.1c0.7,0.1,1.3,0.2,2,0.4
	c0.7,0.2,1.4,0.6,2.1,1c0.7,0.4,1.2,0.9,1.5,1.5c0.6,0.8,0.8,1.8,0.8,2.8c0,0.9-0.2,1.8-0.7,2.5
	C101.5,141.8,100.9,142.3,100.1,142.7z M99,143c-0.4,0.1-0.7,0.1-1.1,0.1c-0.7,0-1.3-0.1-1.7-0.3c-0.4-0.2-0.6-0.5-0.6-0.9
	c0-0.2,0.1-0.3,0.2-0.3c0.1,0,0.3,0,0.4,0.1c0.6,0.3,1.3,0.4,2,0.4c1.3,0,2.3-0.5,2.9-1.5c0.4-0.6,0.6-1.4,0.6-2.2
	c0-1.2-0.5-2.3-1.4-3.2c-0.7-0.6-1.5-1.1-2.5-1.4s-2.2-0.4-3.6-0.4h-0.7l-0.1,7.8l0.1,8.2l1.2,0c1.3,0,2.3-0.1,3-0.2
	s1.3-0.4,1.8-0.7c1-0.7,1.5-1.6,1.5-2.7c0-0.6-0.2-1.1-0.5-1.5C100.2,143.8,99.7,143.4,99,143z"/>
<g>
	<path class="st0" d="M62.8,149.8c-0.7,0-1.3-0.3-1.8-0.8L61,149l-0.3-0.4l-0.4,0.3c-0.8,0.6-1.5,0.8-2.4,0.8c-1,0-1.6-0.5-2.1-1.5
		l-0.5-1.1l-0.5,1.1c-0.4,1-1.2,1.5-2.3,1.5c-0.6,0-1.1-0.2-1.5-0.7c-0.1-0.1-0.2-0.3-0.3-0.5l-0.3-0.6l-0.5,0.4
		c-0.3,0.3-0.7,0.5-1.1,0.7c-0.8,0.4-1.4,0.5-1.9,0.5c-0.6,0-1-0.2-1-1.1c0-0.5,0.2-1.3,0.5-2.3c0.5-1.7,0.5-1.8,0.5-1.9
		c0-0.4-0.3-0.6-0.6-0.6h-0.1l-0.1,0c-0.3,0.1-0.8,0.5-2.1,2.2c-1,1.3-1.6,2.2-1.8,2.8c-0.3,0.6-0.4,0.8-0.4,0.8
		c0,0-0.1,0.1-0.3,0.1c0,0-0.3,0-0.4-0.6l-0.2-0.9l-0.7,0.6c-0.1,0.1-0.2,0.2-0.4,0.3c-0.5,0.4-1.1,0.6-1.5,0.6
		c-0.5,0-0.8-0.1-1-0.3c-0.2-0.2-0.4-0.5-0.4-0.9l-1,0.1l0-0.2c-0.3,0.5-0.6,0.8-1,1.1c-0.4,0.3-0.9,0.4-1.5,0.4
		c-0.5,0-1-0.2-1.3-0.6c-0.4-0.4-0.5-1-0.5-1.7c0-1.4,0.5-2.7,1.6-3.8c1-1.1,2.1-1.7,3.2-1.7c0.3,0,0.5,0,0.5,0.1v0.5
		c-1.2,0-2.2,0.6-3.1,1.6c-0.9,1-1.3,2.1-1.3,3c0,1.6,1.1,1.8,1.5,1.8c0.6,0,1.2-0.3,1.8-1c0.5-0.6,0.8-1.2,1-1.9l0.8-3.4H38
		c0.1,0,0.2,0,0.2,0c0,0,0,0,0,0.1v0.1l-0.7,4.4c0,0.1,0,0.2,0,0.4c0,0.9,0.5,1.1,1,1.1c0.8,0,1.6-0.5,2.5-1.6l0.1-0.1l0-0.2
		c0.2-1.4,0.5-2.8,1-4.3c0.2-0.6,0.5-0.6,0.7-0.6c0.1,0,0.1,0,0.2,0.1c0,0.1,0.1,0.1,0.1,0.1c0,0.1,0,0.1,0,0.1
		c-0.4,1.1-0.7,2.5-1,3.9l1,0.4c0.9-1.5,1.8-2.7,2.6-3.4c0.8-0.7,1.4-1.1,2-1.1c0.2,0,0.4,0.1,0.6,0.2c0.1,0.1,0.2,0.2,0.2,0.3
		c0,0.2-0.1,0.7-0.6,2.4c-0.6,1.8-0.7,2.3-0.7,2.5c0,0.3-0.1,0.5-0.1,0.7c0,0.2,0,0.3,0.1,0.5c0.1,0.2,0.3,0.3,0.6,0.3h0.1
		c0.1,0,0.2,0,0.2,0l0,0c0.7-0.1,1.4-0.6,2.3-1.3l0.2-0.2v-0.2c0-1.3,0.4-2.5,1.3-3.6c0.8-1,1.7-1.6,2.7-1.6c0.2,0,0.5,0,0.8,0.1
		l0.6,0.2l0.1-0.6c0.8-5.4,2.2-8.2,4.4-8.2c0.4,0,0.7,0.1,1,0.4c0.3,0.3,0.4,0.5,0.4,0.9c0,0.1,0,0.2,0,0.5c0,1.4-0.4,2.9-1.3,4.4
		c-0.5,0.9-0.9,1.6-1.2,2s-0.8,1.2-1.5,2.2c-0.7,1-1.1,1.6-1.2,1.8l-0.1,0.1v0.4c0,2.3,1,2.8,1.7,2.8c0.7,0,1.4-0.3,2.1-0.9l0.2-0.2
		l-0.1-0.3c0-0.2-0.1-0.5-0.1-0.7c0-1.3,0.4-2.4,1.3-3.4c0.8-1,1.8-1.5,2.9-1.5c0.6,0,1.1,0.2,1.5,0.6c0.4,0.4,0.6,0.9,0.6,1.6
		c0,0.1,0,0.3-0.1,0.7l-0.1,0.8l0.8-0.1c0.8-0.1,1.7-0.6,2.5-1.3l0.1-0.1l0-0.2c0.1-0.5,0.3-1,0.4-1.5c0.2-0.5,0.4-0.5,0.5-0.5
		c0.1,0,0.1,0,0.2,0.1c0,0,0,0.1,0,0.1c-0.1,0.3-0.2,0.6-0.3,1l0,0.2l0.1,0.2c0,0,0,0.1,0,0.1c0,0,0,0,0,0c0,0-0.1,0.1-0.1,0.1
		l-0.1,0.1l0,0.1c-0.2,1-0.4,2.1-0.5,3.1l1,0.3c0.8-1.8,1.5-3.2,2.2-4.1c0.9-1,1.4-1.2,1.6-1.2c0.1,0,0.2,0,0.3,0.1
		c0.1,0,0.1,0.1,0.1,0.1c0,0.8-0.3,2.2-0.8,4.3l1,0.3c1.6-4.1,2.9-4.9,3.7-4.9c0.5,0,0.7,0.2,0.7,0.6c0,0.3-0.1,1-0.6,2.4
		c-0.4,1.3-0.7,2.2-0.7,2.9c0,0.7,0.4,1.2,1.2,1.2c0.2,0,0.3,0,0.4,0c0.4-0.1,1-0.4,2.6-1.9c0,0,0.1,0,0.1,0.1c0,0,0,0,0,0
		c-0.5,0.6-1.1,1.1-1.8,1.6c-0.7,0.4-1.3,0.6-1.8,0.6h-0.1c-0.4,0-0.7-0.1-0.9-0.3c-0.2-0.2-0.3-0.5-0.3-0.9v-0.2
		c0.1-0.8,0.5-2.2,1.2-4.4l-0.8-0.6c-0.8,0.7-2,2.6-3.4,5.8c-0.2,0.3-0.3,0.6-0.5,0.6c-0.2,0-0.5,0-0.5-0.8s0.3-2.4,1-4.9l-0.9-0.4
		c-1,1.5-2,3.1-2.9,4.9c-0.2,0.4-0.4,0.7-0.6,0.9c-0.1,0.2-0.2,0.2-0.3,0.3c0,0-0.1,0-0.3,0c-0.1,0-0.5,0-0.5-1.1
		c0-0.8,0.1-1.7,0.2-2.6l0.2-1.1l-1,0.6c-0.6,0.4-1.3,0.7-2.1,0.9l-0.3,0.1l-0.1,0.3C65.7,148.8,64.6,149.8,62.8,149.8z M64.3,142.9
		c-0.9,0-1.6,0.5-2.2,1.4c-0.5,0.8-0.8,1.6-0.8,2.5l0,0.3l0.2,0.2l0,0c0.1,0.1,0.1,0.1,0.1,0.1c0,0.1,0,0.1-0.1,0.2l-0.1,0.2
		l0.1,0.2c0.3,0.7,0.9,1.1,1.7,1.1c0.6,0,1.2-0.3,1.7-1c0.4-0.6,0.7-1.2,0.8-1.8l0-0.4l-0.4-0.1c-0.3-0.1-0.7-0.3-0.7-0.6
		c0-0.3,0.2-0.6,0.5-0.9l0.2-0.2l0-0.3c0-0.3-0.1-0.6-0.3-0.8C64.9,143.1,64.7,142.9,64.3,142.9z M55.2,142.8c-1.1,0-2,0.4-2.7,1.3
		c-0.7,0.9-1,1.8-1,2.9v0.3c0.1,1.6,1.1,1.7,1.5,1.7c0.7,0,1.2-0.3,1.6-0.9c0.3-0.5,0.6-1.4,0.8-2.7l0.4-2.6L55.2,142.8L55.2,142.8z
		 M59.8,134.8c-0.8,0-1.5,0.6-1.9,1.7c-0.2,0.5-0.4,1.1-0.6,1.8c-0.2,0.7-0.5,2.4-0.9,5.3l1,0.4c0.1-0.1,0.2-0.2,0.2-0.4
		c0.1-0.1,0.2-0.3,0.6-0.9c0.4-0.6,0.7-1.2,1-1.7c0.3-0.5,0.7-1.3,1-2.2c0.4-0.9,0.6-1.8,0.6-2.5C60.8,134.9,60.1,134.8,59.8,134.8z
		"/>
	<path class="st0" d="M141.1,150.4c-0.9,0-1.6-0.3-2.3-0.8c-0.1-0.1-0.1-0.1-0.2-0.2l-0.3-0.3l-0.4,0.2c-0.2,0.1-0.4,0.3-0.7,0.4
		c-0.9,0.4-2.1,0.7-3.5,0.7c-1,0-1.9-0.2-2.6-0.6c-0.2-0.1-0.4-0.2-0.5-0.3l-0.3-0.2l-0.3,0.2c-0.2,0.1-0.3,0.2-0.5,0.3
		c-0.9,0.4-2.1,0.7-3.5,0.7c-1,0-1.9-0.2-2.6-0.6c-0.3-0.1-0.5-0.3-0.7-0.5l-0.3-0.3l-0.5,0.3c-1.2,0.8-1.9,0.9-2.3,0.9
		c-0.7,0-1-0.3-1-1l0.1-0.7c0,0,0-0.1-0.1-0.1l-0.7-0.2c-0.1,0-0.1-0.1-0.1-0.1c0.4-0.6,0.7-1.2,0.9-2l0.7-2.6
		c0.2-0.7,0.4-0.8,0.4-0.8c0,0,0.1-0.1,0.3-0.1c0.2,0,0.3,0,0.4,0.1c0,0,0.1,0.1,0.1,0.1c-0.6,1.8-1,3.6-1.2,5.2l0,0.4v0
		c0,1.1,0.8,1.1,0.9,1.1c0.6,0,1.2-0.4,1.9-1l0.1-0.1l0-0.1c0.7-1.3,1.7-3.1,2.9-5.5c0.2-0.4,0.5-0.5,0.7-0.5c0.1,0,0.2,0,0.3,0.1
		c0.1,0.1,0.1,0.1,0.1,0.3c0,0.1,0,0.3-0.1,0.4c-0.2,0.3-0.2,0.5-0.2,0.8c0,0.3,0.2,0.7,0.7,1.3c0.4,0.4,0.8,1,1.1,1.5
		c0.3,0.5,0.5,0.9,0.5,1.2c0,0.3-0.1,0.6-0.2,0.8l-0.6,1c0,0.1,0,0.1,0.1,0.1l1.2-0.4c0.3-0.1,0.6-0.3,0.9-0.4l0.4-0.3l-0.1-0.2
		c0.8-1.3,1.8-3.2,2.9-5.6c0.2-0.4,0.5-0.5,0.7-0.5c0.1,0,0.2,0,0.3,0.1c0.1,0.1,0.1,0.1,0.1,0.3c0,0.1,0,0.3-0.1,0.4
		c-0.2,0.3-0.2,0.5-0.2,0.8c0,0.3,0.2,0.7,0.7,1.3c0.4,0.4,0.8,1,1.1,1.5c0.3,0.5,0.5,0.9,0.5,1.2c0,0.3-0.1,0.6-0.2,0.8l-0.6,1
		c0,0.1,0,0.1,0.1,0.1l1.2-0.4c0.5-0.2,1-0.5,1.5-0.9l0.2-0.2l-0.1-0.3c-0.1-0.3-0.1-0.5-0.1-0.8c0-1.2,0.4-2.2,1.2-3.3
		c0.8-1,1.6-1.4,2.7-1.4c0.6,0,1.1,0.1,1.4,0.5c0.4,0.3,0.5,0.7,0.5,1.2c0,0.8-0.3,1.4-1,1.9c-0.7,0.5-1.7,0.9-3,1.2l-0.4,0.1
		l-0.1,0.4c0,0.1,0,0.1,0,0.1c0,0-0.1,0.1-0.1,0.1l-0.2,0.3l0.2,0.3c0.4,0.7,1.1,1,2.2,1c1.5,0,3-0.6,4.3-1.9l0.3,0l-0.4,0.5
		c-0.4,0.5-1,0.9-1.8,1.3C142.9,150.2,142,150.4,141.1,150.4z M131.6,148.1c-0.1,0.1-0.2,0.3-0.3,0.4l-0.3,0.4c0,0,0,0.1,0,0.1
		l0.4,0.3c0.6,0.5,1.2,0.7,1.7,0.7h0.1c1.2,0,1.9-0.6,1.9-1.7c0-0.9-0.4-2-1.4-3.3l-0.4-0.6c0-0.1-0.1,0-0.1,0l-1.6,3.2l0.1,0.2
		c0,0.1,0,0.1,0,0.1C131.7,148,131.7,148,131.6,148.1z M123.2,148.9l0.3,0.3c0.7,0.5,1.3,0.8,1.9,0.8h0.1c1.2,0,1.8-0.6,1.8-1.7
		c0-0.9-0.4-2-1.3-3.3l-0.4-0.6c0-0.1-0.1,0-0.1,0L123.2,148.9z M141.8,143.4c-0.7,0-1.4,0.4-2.1,1.2c-0.6,0.7-0.9,1.6-0.9,2.4v0.6
		c0,0.1,0.1,0.1,0.1,0.1l0.6-0.2c2.5-0.8,3.6-1.7,3.6-2.8C143.2,143.9,142.7,143.4,141.8,143.4z M155.6,150.4c-1,0-1.9-0.2-2.6-0.6
		c-0.3-0.2-0.6-0.4-0.9-0.6l-0.3-0.3l-0.4,0.3c-0.9,0.8-1.9,1.1-2.9,1.1c-0.7,0-1.2-0.3-1.6-0.8c-0.2-0.3-0.3-0.6-0.4-0.9l-0.2-0.6
		h0l0-0.6c0-0.1,0-0.3,0-0.4c0-0.4,0-0.6,0-0.8c0.2-2.4,0.9-5,2-7.7c0.5-1.2,1.2-2.3,1.9-3.1c0.7-0.8,1.4-1.1,2.2-1.1
		c0.4,0,0.7,0.1,0.9,0.3c0.2,0.2,0.3,0.5,0.3,0.9v0.2c-0.2,1.6-0.9,3.4-2.1,5.2c-1.2,1.8-2.6,3.4-4.1,4.5l-0.2,0.1l0,0.2
		c-0.1,0.6-0.1,1-0.1,1.3c0,2.3,1.1,2.6,1.8,2.6c1,0,2-0.6,3.2-1.8l0-0.1l0-0.1c0.7-1.2,1.5-2.8,2.4-4.7c0.2-0.4,0.5-0.5,0.7-0.5
		c0.1,0,0.2,0,0.3,0.1c0.1,0.1,0.1,0.1,0.1,0.3c0,0.1,0,0.3-0.1,0.4c-0.2,0.3-0.2,0.5-0.2,0.8c0,0.3,0.2,0.7,0.7,1.3
		c0.4,0.4,0.8,1,1.1,1.5c0.3,0.5,0.5,0.9,0.5,1.2c0,0.3-0.1,0.6-0.2,0.8l-0.6,1c0,0.1,0,0.1,0.1,0.1l1.2-0.4c0.9-0.3,1.8-1,2.8-2.2
		c0,0,0.1,0.1,0.1,0.1c0.1,0.2,0.2,0.3,0.2,0.3c0,0.1,0,0.1,0,0.2c-0.4,0.7-1.1,1.2-2.1,1.7C158.1,150.2,157,150.4,155.6,150.4z
		 M152.7,148.9l0.3,0.3c0.7,0.5,1.3,0.8,1.9,0.8h0.1c1.2,0,1.9-0.6,1.9-1.7c0-0.9-0.4-2-1.4-3.3l-0.4-0.6c0-0.1-0.1,0-0.1,0
		L152.7,148.9z M151.7,135.4c-1,0-1.9,1-2.7,3.1c-0.8,1.9-1.3,3.6-1.5,5.3c0,0,0,0.1,0,0.1l0.8,0.4c0,0,0.1,0,0.1,0
		c1-1.1,2-2.5,2.9-3.9c0.9-1.6,1.4-2.8,1.4-3.9C152.7,135.8,152.3,135.4,151.7,135.4z M114.9,150.4c-0.5,0-0.8-0.2-1.1-0.5
		c-0.3-0.4-0.5-1-0.5-1.6c0-0.3,0-0.6,0.1-1.1l0.1-0.8c0-0.1-0.1-0.1-0.1-0.1l-0.8,0.4c-0.5,0.2-0.9,0.3-1.3,0.3
		c-1.1,0-1.3-0.5-1.3-0.9c0-0.1,0.1-0.4,0.4-1.6l0.1-0.6c0-0.1,0-0.1-0.1-0.1h-0.6c-0.3,0-0.4,0.1-0.9,0.9c-0.8,1.4-1.7,3.1-2.5,5.3
		c-0.1,0.3-0.3,0.4-0.6,0.4c-0.2,0-0.6,0-0.6-1.2v-0.2c0-1.8,0.3-3.6,0.8-5.3c0.3-0.8,0.6-0.8,0.8-0.8c0.1,0,0.2,0,0.2,0.1
		c0,0,0,0.1,0.1,0.1l-1,4.4c0,0,0,0.1,0.1,0.1l0.9,0.2c0,0,0.1,0,0.1-0.1c0.3-0.9,0.9-2,1.7-3.2c1.1-1.6,1.6-1.7,1.7-1.7
		c0.6,0,0.6,0.2,0.6,0.4c0,0.3-0.1,0.7-0.2,1.1c-0.3,0.8-0.3,0.9-0.3,1.1c0,0.4,0.3,0.9,1.1,0.9c0.4,0,1-0.2,1.8-0.6l0.2-0.1
		l0.1-0.2c0,0,0-0.1,0.1-0.2c0.4-1.4,0.7-1.9,0.8-2.1c0.2-0.3,0.3-0.3,0.4-0.3c0.3,0,0.4,0.1,0.5,0.1c0,0,0,0,0,0
		c-0.1,0.2-0.2,0.6-0.6,1.7c-0.4,1.2-0.7,2.3-0.8,3.2v0v0.2c0,1.6,1,1.8,1.4,1.8c0.6,0,1.3-0.3,1.9-1c0,0,0,0,0,0
		c-0.2,0.3-0.4,0.6-0.6,0.8C116.3,150.1,115.6,150.5,114.9,150.4z"/>
</g>
<g>
	<path class="st0" d="M17,143.6c-0.8-1.3-1.1-2.6-1.1-4.1c0-1.3,0.4-2.6,1.2-3.8c0.8-1.3,1.9-2.2,3.2-2.8c0.8-0.3,1.8-0.6,3-0.7
		s3.1-0.1,5.3-0.1l0,0l-0.1,8.9l-0.1,8.9l-0.8,0l-0.8,0l-1.3,0l0-1.3l0.1-2.2l0-0.5c-1.8,1.4-3.3,2.4-4.6,3
		c-1.6,0.8-2.9,1.1-3.8,1.1c-0.4,0-0.6-0.1-0.6-0.4c0-0.2,0.1-0.3,0.4-0.4c1.1-0.2,2.1-0.5,3-0.9c1-0.4,1.8-0.9,2.7-1.4
		C20.1,146.8,18.2,145.6,17,143.6z M25.6,144.8l0-0.6l0-2.4l0-8.7c-2,0-3.6,0.2-4.7,0.5c-1.1,0.4-2.1,1-2.8,1.9
		c-1,1.2-1.5,2.5-1.5,4.1c0,0.9,0.2,1.8,0.5,2.6c0.4,0.9,1,1.7,1.7,2.4c1.2,1,2.7,1.6,4.4,1.6h0.6C24.5,145.7,25.1,145.3,25.6,144.8
		z"/>
</g>
<path class="st1" d="M73.5,0c1.5,42.1,1.5,84.1,0,125.7"/>
<path class="st1" d="M69.5,0.3v125.4C69.7,85,69.7,40.6,69.5,0.3C69.5,0.3,69.5,0.3,69.5,0.3z"/>
<path class="st1" d="M77.4,0c0.6,42,0.6,84,0,125.7"/>
<path class="st2" d="M88.6,125.7"/>
<path class="st2" d="M88.2,78.9"/>
<path class="st2" d="M90,2.4"/>
<path class="st3" d="M86.6,1.4c-0.5,40.8-2.5,82.8-1,124.3"/>
<path class="st3" d="M89.8,1.3c-0.8,40.9-1.8,82.9-0.1,124.4"/>
<path class="st4" d="M94.1,125.4"/>
<path class="st4" d="M93.8,1.9C91,42.1,94,82.1,93,122.1c0,1-1,4,2.2,3.6"/>
</svg>
