<svg xmlns="http://www.w3.org/2000/svg" viewBox="0 0 217.7 183.7"><defs><style>.cls-1,.cls-3{fill:#0e6e48;}.cls-2,.cls-5{fill:#95c11f;}.cls-2{stroke:#f5f7f6;stroke-width:7px;}.cls-2,.cls-5,.cls-6,.cls-7{stroke-miterlimit:10;}.cls-3{font-size:69.96px;font-family:Broadway;}.cls-4{letter-spacing:-0.04em;}.cls-5,.cls-6{stroke:#95c11f;stroke-width:2.96px;}.cls-6,.cls-7{fill:none;}.cls-7{stroke:#f9f9f9;stroke-width:3.55px;}</style></defs><title>Asset 1</title><g id="Layer_2" data-name="Layer 2"><g id="Layer_1-2" data-name="Layer 1"><path class="cls-1" d="M176.19,120.43,76.75,181.79c-5.51,3.4-12.63,2.14-15.91-2.81L1.64,89.61c-3.28-5-1.48-11.72,4-15.11l99.44-61.36C110.62,9.74,117.75,11,121,16l59.2,89.37C183.51,110.27,181.7,117,176.19,120.43Z"/><path class="cls-2" d="M186.67,145l-96.3,16.52c-17,2.91-32.88-7-35.52-22.2l-15-86.07c-2.64-15.17,9-29.83,26-32.74L162.1,4c17-2.91,32.88,7,35.53,22.2l15,86.06C215.26,127.44,203.64,142.1,186.67,145Z"/><text class="cls-3" transform="matrix(0.87, -0.15, 0.17, 0.99, 63.21, 130.65)"><tspan class="cls-4">v</tspan><tspan x="41.57" y="0">e</tspan></text><text class="cls-3" transform="matrix(0.68, -0.12, 0.24, 1.38, 136.05, 118.09)">l</text><circle class="cls-1" cx="159.87" cy="63.85" r="6.09"/><circle class="cls-1" cx="145.5" cy="79.95" r="6.09"/><circle class="cls-1" cx="149.94" cy="48.76" r="6.09"/><circle class="cls-1" cx="139.97" cy="35.16" r="6.09"/><circle class="cls-1" cx="120.62" cy="39.05" r="6.09"/><circle class="cls-1" cx="96.8" cy="44.29" r="6.09"/><line class="cls-5" x1="96.91" y1="44.04" x2="138.95" y2="35.49"/><line class="cls-6" x1="159.44" y1="63.14" x2="139.54" y2="34.46"/><line class="cls-6" x1="135.06" y1="87.61" x2="156.23" y2="71.93"/><circle class="cls-1" cx="189.89" cy="88.97" r="27.81"/><circle class="cls-7" cx="183.73" cy="94.06" r="25.03"/></g></g></svg>