<svg id="Layer_1" data-name="Layer 1" xmlns="http://www.w3.org/2000/svg" viewBox="0 0 283.19 286.71"><defs><style>.cls-1{fill:#46a30a;}</style></defs><title>menuOut</title><path class="cls-1" d="M173.94,920c-.79-1.92-1.53-3.87-2.38-5.76a32,32,0,0,1,6.53-36.28Q285.22,774.28,392.47,670.73c12.5-12.07,32.71-11.42,45.13.69,8.42,8.21,14.83,17.12,14.15,29.56a31,31,0,0,1-9.45,21.31Q335.14,825.94,227.92,929.5a32,32,0,0,1-36.48,5.29c-1.86-.92-3.78-1.72-5.67-2.58Z" transform="translate(-168.6 -662)"/><path class="cls-1" d="M190.19,671.09c1.92-.8,3.87-1.54,5.76-2.39a32,32,0,0,1,36.29,6.49Q336,782.21,439.67,889.35c12.09,12.49,11.46,32.7-.64,45.13-8.2,8.43-17.11,14.85-29.55,14.18a31,31,0,0,1-21.31-9.43q-103.77-107-207.44-214.16a32,32,0,0,1-5.33-36.47c.92-1.86,1.72-3.78,2.57-5.68Z" transform="translate(-168.6 -662)"/></svg>