<svg xmlns="http://www.w3.org/2000/svg" viewBox="0 0 151 133"><defs><style>.cls-1{fill:#7cd900;}.cls-2{fill:#fff;}.cls-3{font-size:12px;font-family:ForteMT, Forte;}</style></defs><title>Queen</title><g id="Layer_2" data-name="Layer 2"><g id="Layer_1-2" data-name="Layer 1"><path class="cls-1" d="M151,57.5a75.5,75.5,0,0,1-151,0C0,15.8,35.3,0,77,0S151,15.8,151,57.5Z"/><path class="cls-2" d="M76,59A10,10,0,1,0,86,69,10,10,0,0,0,76,59Zm0,16a7,7,0,1,1,7-7A7,7,0,0,1,76,75Z"/><path class="cls-2" d="M76,81a9.86,9.86,0,0,1-3.82-.76A8.4,8.4,0,0,0,72,82c0,3.31,1.79,6,4,6s4-2.69,4-6a8.4,8.4,0,0,0-.18-1.76A9.86,9.86,0,0,1,76,81Z"/><path class="cls-2" d="M82,80s1,6-1,7,4,2,8-1,7-2,14-18c0,0,5-18,21-13a10.82,10.82,0,0,1,7,3c3,3,6-2,6-2s-8-11-20-8-12,6-18,19S93,82,89,82A13.83,13.83,0,0,1,82,80Z"/><path class="cls-2" d="M69.6,80s-1,6,1,7-4,2-8-1-7-2-14-18c0,0-5-18-21-13a10.82,10.82,0,0,0-7,3c-3,3-6-2-6-2s8-11,20-8,12,6,18,19,6,15,10,15A13.83,13.83,0,0,0,69.6,80Z"/><text class="cls-3" transform="translate(40.43 98.28)">Bike Brussels<tspan x="0" y="14.4" xml:space="preserve">      Queen</tspan></text></g></g></svg>