<?xml version="1.0" encoding="utf-8"?>
<!-- Generator: Adobe Illustrator 23.0.6, SVG Export Plug-In . SVG Version: 6.00 Build 0)  -->
<svg version="1.1" id="Layer_1" xmlns="http://www.w3.org/2000/svg" xmlns:xlink="http://www.w3.org/1999/xlink" x="0px" y="0px"
	 viewBox="0 0 383 386" style="enable-background:new 0 0 383 386;" xml:space="preserve">
<style type="text/css">
	.st0{fill:none;stroke:#000000;stroke-miterlimit:10;}
	.st1{fill:none;stroke:#000000;stroke-width:1.0156;stroke-miterlimit:10;}
	.st2{fill:none;stroke:#000000;stroke-width:0.999;stroke-miterlimit:10;}
	.st3{fill:none;stroke:#000000;stroke-width:0.7081;stroke-miterlimit:10;}
	.st4{fill:none;stroke:#000000;stroke-width:0.548;stroke-miterlimit:10;}
	.st5{fill:#FFFFFF;}
	.st6{fill:none;stroke:#000000;stroke-width:0.4134;stroke-miterlimit:10;}
	.st7{fill:none;stroke:#000000;stroke-width:0.3386;stroke-miterlimit:10;}
	.st8{stroke:#000000;stroke-width:0.4134;stroke-miterlimit:10;}
</style>
<g id="XMLID_1_">
	<g>
		<path d="M190.74,376.5C89.12,376.36,6.86,293.87,7,192.25S89.63,8.36,191.25,8.5S375.14,91.14,375,192.76
			C374.86,294.38,292.36,376.64,190.74,376.5z M21.5,192.27C21.37,285.88,97.14,361.87,190.76,362
			c93.61,0.13,169.61-75.66,169.73-169.27C360.63,99.12,284.84,23.13,191.23,23C97.61,22.87,21.63,98.65,21.5,192.27z"/>
	</g>
	<g>
		<circle class="st0" cx="191" cy="192.5" r="184"/>
		<circle class="st0" cx="191" cy="192.5" r="169.5"/>
	</g>
</g>
<circle class="st0" cx="191" cy="192.5" r="163.49"/>
<g id="XMLID_2_">
	<g>
		<path d="M346.73,192.72c0.12-86.02-69.5-155.84-155.51-155.96c-86.02-0.12-155.84,69.5-155.96,155.52
			c-0.12,86.01,69.5,155.83,155.52,155.95C276.79,348.35,346.61,278.73,346.73,192.72z M191.22,34.16
			c87.44,0.12,158.23,71.11,158.11,158.56c-0.12,87.44-71.11,158.23-158.55,158.11c-87.45-0.12-158.24-71.11-158.12-158.55
			C32.78,104.83,103.77,34.04,191.22,34.16z"/>
	</g>
	<g>
		<path class="st1" d="M349.33,192.72c-0.12,87.44-71.11,158.23-158.55,158.11c-87.45-0.12-158.24-71.11-158.12-158.55
			c0.12-87.45,71.11-158.24,158.56-158.12C278.66,34.28,349.45,105.27,349.33,192.72z"/>
		<path class="st2" d="M346.73,192.72c-0.12,86.01-69.94,155.63-155.95,155.51c-86.02-0.12-155.64-69.94-155.52-155.95
			c0.12-86.02,69.94-155.64,155.96-155.52C277.23,36.88,346.85,106.7,346.73,192.72z"/>
	</g>
</g>
<g>
	<g id="XMLID_3_">
		<g>
			<path d="M191.02,178.79c7.56,0.01,13.69,6.15,13.68,13.72c-0.01,7.56-6.15,13.69-13.72,13.68c-7.57-0.01-13.7-6.15-13.68-13.72
				C177.3,184.91,183.45,178.78,191.02,178.79z M201.59,192.51c0.01-5.86-4.73-10.61-10.58-10.62c-5.86-0.01-10.61,4.73-10.62,10.59
				c-0.01,5.86,4.73,10.6,10.59,10.61S201.59,198.37,201.59,192.51z"/>
		</g>
		<g>
			<path class="st3" d="M204.69,192.52c-0.01,7.56-6.15,13.69-13.72,13.68c-7.57-0.01-13.7-6.15-13.68-13.72
				c0.01-7.57,6.15-13.7,13.72-13.68C198.58,178.8,204.7,184.95,204.69,192.52z"/>
			<path class="st4" d="M201.59,192.51c-0.01,5.86-4.76,10.59-10.61,10.58s-10.6-4.76-10.59-10.61c0.01-5.86,4.76-10.6,10.62-10.59
				C196.87,181.9,201.6,186.66,201.59,192.51z"/>
		</g>
	</g>
	<g id="XMLID_4_">
		<g>
			<circle class="st5" cx="191" cy="192.5" r="6.55"/>
			<path d="M183,192.49c0.01-4.42,3.59-8,8.01-7.99c4.42,0.01,7.99,3.59,7.98,8.01c-0.01,4.42-3.59,7.99-8.01,7.98
				C186.57,200.49,182.99,196.9,183,192.49z M191.01,185.95c-3.62-0.01-6.55,2.92-6.56,6.54c-0.01,3.62,2.93,6.55,6.54,6.56
				c3.62,0.01,6.55-2.93,6.56-6.54C197.55,188.88,194.62,185.95,191.01,185.95z"/>
		</g>
		<g>
			<path class="st6" d="M198.99,192.51c-0.01,4.42-3.59,7.99-8.01,7.98c-4.42-0.01-8-3.59-7.99-8.01c0.01-4.42,3.59-8,8.01-7.99
				C195.43,184.5,199,188.09,198.99,192.51z"/>
			<circle class="st7" cx="191" cy="192.5" r="6.55"/>
		</g>
	</g>
	<circle class="st8" cx="191" cy="192.5" r="4.14"/>
</g>
<line class="st0" x1="177.3" y1="192.48" x2="186.85" y2="36.76"/>
<line class="st0" x1="178.11" y1="197.16" x2="133.84" y2="47.57"/>
<line class="st0" x1="180.49" y1="201.29" x2="87.72" y2="75.86"/>
<line class="st0" x1="184.13" y1="204.35" x2="54.05" y2="118.21"/>
<line class="st0" x1="188.6" y1="205.98" x2="36.91" y2="169.53"/>
<line class="st0" x1="193.36" y1="205.99" x2="38.34" y2="223.62"/>
<line class="st0" x1="197.83" y1="204.37" x2="58.19" y2="273.95"/>
<line class="st0" x1="201.48" y1="201.32" x2="94.06" y2="314.46"/>
<line class="st0" x1="203.86" y1="197.2" x2="141.62" y2="340.26"/>
<line class="st0" x1="204.7" y1="192.52" x2="195.14" y2="348.23"/>
<line class="st0" x1="203.88" y1="187.83" x2="248.15" y2="337.42"/>
<line class="st0" x1="201.5" y1="183.7" x2="294.27" y2="309.14"/>
<line class="st0" x1="197.86" y1="180.64" x2="327.94" y2="266.78"/>
<line class="st0" x1="193.39" y1="179.01" x2="345.09" y2="215.46"/>
<line class="st0" x1="188.63" y1="179" x2="343.65" y2="161.37"/>
<line class="st0" x1="184.16" y1="180.62" x2="323.8" y2="111.04"/>
<line class="st0" x1="180.51" y1="183.68" x2="287.93" y2="70.53"/>
<line class="st0" x1="178.13" y1="187.79" x2="240.37" y2="44.74"/>
<line class="st0" x1="177.3" y1="192.48" x2="186.85" y2="36.76"/>
<line class="st0" x1="204.7" y1="191.97" x2="195.14" y2="36.25"/>
<line class="st0" x1="203.69" y1="187.31" x2="141.45" y2="44.26"/>
<line class="st0" x1="201.15" y1="183.29" x2="93.74" y2="70.14"/>
<line class="st0" x1="197.39" y1="180.37" x2="57.75" y2="110.79"/>
<line class="st0" x1="192.85" y1="178.91" x2="37.84" y2="161.29"/>
<line class="st0" x1="188.1" y1="179.1" x2="36.4" y2="215.55"/>
<line class="st0" x1="183.69" y1="180.9" x2="53.61" y2="267.03"/>
<line class="st0" x1="180.16" y1="184.09" x2="87.39" y2="309.52"/>
<line class="st0" x1="177.94" y1="188.31" x2="133.66" y2="337.9"/>
<line class="st0" x1="177.3" y1="193.02" x2="186.85" y2="348.74"/>
<line class="st0" x1="178.3" y1="197.68" x2="240.54" y2="340.73"/>
<line class="st0" x1="180.84" y1="201.71" x2="288.26" y2="314.85"/>
<line class="st0" x1="184.6" y1="204.62" x2="324.24" y2="274.21"/>
<line class="st0" x1="189.14" y1="206.08" x2="344.15" y2="223.71"/>
<line class="st0" x1="193.89" y1="205.9" x2="345.59" y2="169.44"/>
<line class="st0" x1="198.3" y1="204.1" x2="328.38" y2="117.96"/>
<line class="st0" x1="201.83" y1="200.9" x2="294.6" y2="75.47"/>
<line class="st0" x1="204.05" y1="196.69" x2="248.33" y2="47.09"/>
</svg>
