<svg xmlns="http://www.w3.org/2000/svg" viewBox="0 0 369 369"><defs><style>.cls-1,.cls-2,.cls-3,.cls-4,.cls-5,.cls-7,.cls-8{fill:none;}.cls-1,.cls-2,.cls-3,.cls-4,.cls-5,.cls-7,.cls-8,.cls-9{stroke:#000;stroke-miterlimit:10;}.cls-2{stroke-width:1.02px;}.cls-3{stroke-width:1px;}.cls-4{stroke-width:0.71px;}.cls-5{stroke-width:0.55px;}.cls-6{fill:#fff;}.cls-7,.cls-9{stroke-width:0.41px;}.cls-8{stroke-width:0.34px;}</style></defs><title>roueAnim</title><g id="Layer_2" data-name="Layer 2"><g id="Layer_1-2" data-name="Layer 1"><path d="M368.5,184.75c-.14,101.62-82.63,183.89-184.25,183.75A184,184,0,0,1,.5,184.25C.64,82.63,83.12.36,184.75.5S368.64,83.13,368.5,184.75ZM184.27,354A169.5,169.5,0,1,0,15,184.27,169.5,169.5,0,0,0,184.27,354Z"/><circle class="cls-1" cx="184.5" cy="184.5" r="184"/><circle class="cls-1" cx="184.5" cy="184.5" r="169.5"/><circle class="cls-1" cx="184.5" cy="184.5" r="163.49"/><path d="M184.71,28.76a155.74,155.74,0,1,0,155.52,156A155.74,155.74,0,0,0,184.71,28.76Zm-.44,314.07A158.34,158.34,0,1,1,342.83,184.72,158.33,158.33,0,0,1,184.27,342.83Z"/><path class="cls-2" d="M342.83,184.72A158.34,158.34,0,1,1,184.71,26.16,158.34,158.34,0,0,1,342.83,184.72Z"/><path class="cls-3" d="M340.23,184.72a155.74,155.74,0,1,1-155.52-156A155.72,155.72,0,0,1,340.23,184.72Z"/><path d="M195.1,184.51a10.6,10.6,0,1,0-10.62,10.59A10.61,10.61,0,0,0,195.1,184.51Zm-24.3,0a13.7,13.7,0,1,1,13.67,13.71A13.69,13.69,0,0,1,170.8,184.48Z"/><path class="cls-4" d="M198.2,184.52a13.7,13.7,0,1,1-13.69-13.72A13.7,13.7,0,0,1,198.2,184.52Z"/><path class="cls-5" d="M195.1,184.51a10.6,10.6,0,1,1-10.59-10.62A10.61,10.61,0,0,1,195.1,184.51Z"/><circle class="cls-6" cx="184.49" cy="184.5" r="6.55"/><path d="M184.5,178a6.55,6.55,0,1,0,6.54,6.56A6.55,6.55,0,0,0,184.5,178Zm0,14.55a8,8,0,1,1,8-8A8,8,0,0,1,184.48,192.5Z"/><path class="cls-7" d="M192.49,184.51a8,8,0,1,1-8-8A8,8,0,0,1,192.49,184.51Z"/><circle class="cls-8" cx="184.49" cy="184.5" r="6.55"/><circle class="cls-9" cx="184.5" cy="184.5" r="4.14"/><line class="cls-1" x1="170.8" y1="184.48" x2="180.35" y2="28.76"/><line class="cls-1" x1="171.62" y1="189.16" x2="127.34" y2="39.57"/><line class="cls-1" x1="173.99" y1="193.29" x2="81.22" y2="67.86"/><line class="cls-1" x1="177.63" y1="196.35" x2="47.55" y2="110.21"/><line class="cls-1" x1="182.1" y1="197.99" x2="30.41" y2="161.53"/><line class="cls-1" x1="186.86" y1="197.99" x2="31.84" y2="215.62"/><line class="cls-1" x1="191.33" y1="196.37" x2="51.69" y2="265.95"/><line class="cls-1" x1="194.98" y1="193.32" x2="87.56" y2="306.46"/><line class="cls-1" x1="197.36" y1="189.2" x2="135.12" y2="332.26"/><line class="cls-1" x1="198.2" y1="184.52" x2="188.64" y2="340.23"/><line class="cls-1" x1="197.38" y1="179.83" x2="241.65" y2="329.42"/><line class="cls-1" x1="195" y1="175.7" x2="287.77" y2="301.14"/><line class="cls-1" x1="191.36" y1="172.64" x2="321.44" y2="258.78"/><line class="cls-1" x1="186.89" y1="171.01" x2="338.59" y2="207.46"/><line class="cls-1" x1="182.14" y1="171" x2="337.15" y2="153.37"/><line class="cls-1" x1="177.66" y1="172.62" x2="317.3" y2="103.04"/><line class="cls-1" x1="174.01" y1="175.68" x2="281.43" y2="62.53"/><line class="cls-1" x1="171.63" y1="179.79" x2="233.87" y2="36.74"/><line class="cls-1" x1="170.8" y1="184.48" x2="180.35" y2="28.76"/><line class="cls-1" x1="198.2" y1="183.97" x2="188.64" y2="28.25"/><line class="cls-1" x1="197.19" y1="179.32" x2="134.95" y2="36.26"/><line class="cls-1" x1="194.65" y1="175.29" x2="87.24" y2="62.14"/><line class="cls-1" x1="190.89" y1="172.37" x2="51.25" y2="102.79"/><line class="cls-1" x1="186.36" y1="170.91" x2="31.34" y2="153.29"/><line class="cls-1" x1="181.6" y1="171.1" x2="29.9" y2="207.55"/><line class="cls-1" x1="177.19" y1="172.9" x2="47.11" y2="259.03"/><line class="cls-1" x1="173.66" y1="176.09" x2="80.89" y2="301.53"/><line class="cls-1" x1="171.44" y1="180.31" x2="127.16" y2="329.9"/><line class="cls-1" x1="170.8" y1="185.02" x2="180.35" y2="340.74"/><line class="cls-1" x1="171.8" y1="189.68" x2="234.04" y2="332.74"/><line class="cls-1" x1="174.34" y1="193.71" x2="281.76" y2="306.85"/><line class="cls-1" x1="178.1" y1="196.62" x2="317.74" y2="266.21"/><line class="cls-1" x1="182.64" y1="198.08" x2="337.65" y2="215.71"/><line class="cls-1" x1="187.39" y1="197.9" x2="339.09" y2="161.44"/><line class="cls-1" x1="191.8" y1="196.1" x2="321.88" y2="109.96"/><line class="cls-1" x1="195.33" y1="192.9" x2="288.1" y2="67.47"/><line class="cls-1" x1="197.55" y1="188.69" x2="241.83" y2="39.09"/></g></g></svg>