<svg xmlns="http://www.w3.org/2000/svg" viewBox="0 0 325.09 149.48"><defs><style>.cls-1{fill:#fff;}</style></defs><title>velogo</title><g id="Layer_2" data-name="Layer 2"><g id="Layer_1-2" data-name="Layer 1"><path d="M321.71,101.72a.71.71,0,0,1-.58-.55c-.18-.66.25-1.1.79-1.4a2.27,2.27,0,0,1,.75-.24l0-.08c.28-.93.53-1.86.76-2.8l-.47-.17a2.21,2.21,0,0,0,.62-.47c.39-1.62.7-3.25.95-4.89a.58.58,0,0,1-.05-.49.48.48,0,0,1,.15-.25c.14-1,.25-2,.32-3a1,1,0,0,1-.18-.38.88.88,0,0,1,.27-.91c0-.23,0-.46,0-.68s0-.26,0-.39c0-.67-.06-1.34-.1-2a3.26,3.26,0,0,1-.69-1.36,4.51,4.51,0,0,1,.15-3.67,30,30,0,0,0-3.2-9.79c-1.85-3.38-4-6.58-5.63-10a1.54,1.54,0,0,1-.25-.26,72.24,72.24,0,0,0-7.31-8,1.7,1.7,0,0,0-.72-.47,3.9,3.9,0,0,1-2.05-1.54c-.26-.28-.44-.64-.84-.77a62.68,62.68,0,0,1-6.12-3,32.5,32.5,0,0,0-3.28-1.8c-2.74-.9-5.65-1.26-8.22-2.69a6.49,6.49,0,0,0-1.8-.55,109.37,109.37,0,0,0-17.94-2.28,19.54,19.54,0,0,0-4.18-.08c-.79.13-1.58.24-2.37.34l0,0a8,8,0,0,1,3-.67l-.74,0c-3.32-.14-6.65,0-10,.11-2.15.42-4.29.91-6.47,1.18-3.64.44-7.12,1.5-10.75,1.92a1.88,1.88,0,0,1-1.5-.57,2.2,2.2,0,0,0-.26.15c0-.1.08-.2.11-.3a2.29,2.29,0,0,1-.62-1.54A24,24,0,0,1,234,33a9.57,9.57,0,0,1,.29-1.67,16.49,16.49,0,0,0,.45-3,20.1,20.1,0,0,1,.25-2.46,12.41,12.41,0,0,1,.43-3.43,10.72,10.72,0,0,1,.92-2,3.14,3.14,0,0,1,.37-1.05c.07-.11,0-.28-.06-.43-.34-1.85.21-2.53,2.15-2.65A83.26,83.26,0,0,0,249.57,15c7.41-1.45,14.73-3.3,22.12-4.86a3.2,3.2,0,0,0,2.36-1.48,8.09,8.09,0,0,1,2.83-2.95,1.35,1.35,0,0,0,.28-.25,6.17,6.17,0,0,0,.67-3.9,2.72,2.72,0,0,0-1.78-1A27.76,27.76,0,0,0,272.1,0a27.71,27.71,0,0,1-3.52,1,16.32,16.32,0,0,1-3,.26c-2.37.56-4.78,1-7.16,1.56-3.89.88-7.82,1.62-11.71,2.58a2.28,2.28,0,0,1-.75.36,68.65,68.65,0,0,1-7.8,1.59,16.3,16.3,0,0,1-4,.11,9.51,9.51,0,0,1-4-.14l-1-.22a2.48,2.48,0,0,0-2,1.33c-.56,1.21-.17,3.25,0,4.52.39,3.73,1.06,7.6-2.26,10.23a9.54,9.54,0,0,1-8,1.67c-15.93,0-31.86,0-47.79-.42l-8.8-.23-5.66.08c-.91.22-1.83.41-2.76.56-5.11.83-10.3.73-15.46,1a80,80,0,0,1-8,.15l-8,.2c-2.56.07-5.13.53-7.68.2-1.25-.17-2.51-.61-3.54-.3a9.36,9.36,0,0,0,.84-1.3c1.34-2.46,2.63-5,4-7.4.72-1.25,1.6-2.53,3.2-2.37.54,0,1.08.07,1.62.09a11.52,11.52,0,0,1,1.31-.21,1.93,1.93,0,0,1,.9-.35c3.8-.6,7.45.17,11.24.06a13.17,13.17,0,0,0,5.29-1.33c1.09-2,1.62-4.86-.39-6.14a15,15,0,0,0-4.7-1.8,41,41,0,0,0-6.17-.07.92.92,0,0,0,.34.31c-1-.07-2-.13-3-.18a85.49,85.49,0,0,1-11.43-.08c-2.17-.19-4.33-.44-6.5-.66q-6-.24-12.09-.52H90.13c-.86.23-1.26.88-1.43,2.1a13.43,13.43,0,0,0,.24,4.47c.55,2.79,1.1,3.31,4,3.28,2.71,0,5.4.41,8.12.36,1.49,0,1.89.7,1.36,2.08a11.51,11.51,0,0,1-.56,1.18C99.6,22.08,97.39,26.54,95,30.91c-.37.7-.68,1.46-1.11,2.13a15.61,15.61,0,0,1-1.49,3.25,2.39,2.39,0,0,1-.69.72c-.06,1.05-.67,1.14-2.21.53a75.2,75.2,0,0,0-15.9-3.88A84.48,84.48,0,0,0,52.08,33a80.52,80.52,0,0,0-8.18,1.17,76.22,76.22,0,0,0-8.74,2.48c-3.65,1.24-7.41,2.24-10.79,4.13A47.47,47.47,0,0,0,13.51,49,33.87,33.87,0,0,0,8.43,54.9c-.08.13-.15.26-.22.4-.54.9-1.32,1.64-1.85,2.56-1.08,1.85-2.65,3.38-3,5.68-.21,1.24-.83,2.45-1.17,3.7a5.67,5.67,0,0,1-.87,2C1.1,69.83.94,70.43.8,71c-.09.37-.17.76-.24,1.14A3.17,3.17,0,0,1,.26,74a.54.54,0,0,0-.05.11L0,75.45c.13,1.13.24,2.25.28,3.34s.07,2.3.1,3.44c.44,5,1,9.91,1.59,14.86.27.69.56,1.39.85,2.07C4.91,104,7.14,109,9.71,113.61A62,62,0,0,0,14.53,121c1.58,1.43,3.23,2.77,4.87,4.07A165.12,165.12,0,0,0,40,138.53c7.08,4,15,4.16,22.84,5.22,8.46,1.14,16.65,3.17,25.21,3.59,1.14.06,2.28.1,3.41.12,2.31-.26,4.66-.38,7-.54a52,52,0,0,0,6.1-.71c2.17-.76,4.21-1.82,6.45-2.81a2.29,2.29,0,0,1,1.31-.2,49.49,49.49,0,0,0,4.73-3.41,63.74,63.74,0,0,0,12.78-13.51,55.23,55.23,0,0,0,4.72-8,52.82,52.82,0,0,0,2.08-6c1.29-3.9,3-8.43,7.06-10.12s9.29-.94,13.72-1.11a43.3,43.3,0,0,1,10.57.84,14.7,14.7,0,0,1,13.38,6.34,8,8,0,0,1,1.49,1.13c2.37,2.24,3.48,5.34,4.94,8.17a41.11,41.11,0,0,0,7.73,10,115.64,115.64,0,0,0,8.6,8.12c6.34,5.13,14.2,8.32,21.92,10.7,1.91.59,3.84,1.14,5.78,1.67,2.54.46,5.1.77,7.67,1,25.24,2.34,54.82-3.63,70.43-25.43a108.51,108.51,0,0,0,10.37-18.72C320.78,103.81,321.25,102.77,321.71,101.72ZM129.61,6a6.56,6.56,0,0,1-1-.16A2.57,2.57,0,0,1,129.61,6ZM232.72,40.45a3,3,0,0,0-.11.32c-.13.46-.63.69-.77.79A3.35,3.35,0,0,1,232.72,40.45Zm-106.37,70a33.76,33.76,0,0,1-10,13.39,17.28,17.28,0,0,1-3.56,2.72l-.25.14a48.27,48.27,0,0,1-16.12,7A51.83,51.83,0,0,1,83,134.93a2.17,2.17,0,0,1-2.39.93c-4.38-1-8.84-1.68-13.24-2.62a80.8,80.8,0,0,1-12.31-4c-6.73-2.6-13.57-4.75-19.56-8.9-5.77-4-11.78-8.68-16.22-14.17A47,47,0,0,1,11,89a22,22,0,0,1,.1-10.63,27.59,27.59,0,0,1,2.19-5.13c.17-.69.36-1.38.59-2.06a2.43,2.43,0,0,1-.83-3c4.47-10.32,12.83-19,23.77-22.33,1.19-.36,2.39-.65,3.6-.93a2.33,2.33,0,0,1,.35-.22,23.11,23.11,0,0,1,8.18-2.41,18.17,18.17,0,0,1,4.09-1,12.78,12.78,0,0,1,1.63-.07,22.39,22.39,0,0,1,9.22.14c3.41.59,6.86,1,10.21,1.86a45.39,45.39,0,0,0,5.38,1.32,13.94,13.94,0,0,1,3.85.84,4.89,4.89,0,0,1,3,3.88c.68,4-1.55,8.45-3.22,12-1.87,4-4.13,7.79-6,11.78-.79,2.24-1.88,4.35-2.83,6.52-1.06,2.46-1.67,5.08-2.68,7.56s-2.08,4.66-3.17,7c-.58,1.25-1.16,2.49-1.68,3.76a11,11,0,0,0-1.15,3.25,1.89,1.89,0,0,0,.44,1.16c2.21.42,4.42.87,6.63,1.31,3.54-1.11,8,.42,11.4,1,6.92,1.1,14.5.82,21.46.3,6.09-.44,13.94-1.63,19.6,1.42A3,3,0,0,1,126.35,110.49Zm.54-14.2c-2.81,1.94-6.7,2-10,2-12.42,0-24.84-.13-37.26-.13a2.28,2.28,0,0,1-1.89-3.46c-.39-2.39,1.19-5.17,2.14-7.21a125.18,125.18,0,0,1,6-11.16q1.42-2.4,2.94-4.77c.48-1.41,1-2.82,1.53-4.21a52,52,0,0,1,4.26-8.9c1.19-1.88,2.78-4.08,5.13-4.44,4.52-.71,8.85,5,11.35,7.93a160.19,160.19,0,0,1,10.47,14.23c1.16,1.73,2.23,3.5,3.34,5.25a34.25,34.25,0,0,1,2.43,4.3,1.88,1.88,0,0,1,.92,1C129.79,90.06,130.27,94,126.89,96.29Zm63.27-18.55c-1.15,3.47-2,7-3.61,10.32a23.16,23.16,0,0,1-3.17,5.46c-2,2.53-4.71,2.84-7.56,2.65a27.63,27.63,0,0,1-8.57.08L163,95.71a22,22,0,0,1-3,0c-.61-.06-1.22-.14-1.82-.23-1.66-.09-3.33-.2-5-.32l-1.61,0c-3.46.15-7.42,1-10.37-1.3a10.84,10.84,0,0,1-3-4.73c-1-2.45-2.08-4.88-3.24-7.26a67.63,67.63,0,0,0-8.17-13.19c-1.76-2.16-3.58-4.22-5.19-6.51-1.44-2-2.75-4.17-4.31-6.12a27.67,27.67,0,0,0-2.11-2.34,15,15,0,0,1-4-1.9A15.61,15.61,0,0,1,107.18,48c-.22-.12-.45-.24-.66-.37-1.54-.9-3.43-2-4.16-3.67-2.9-6.86,10.61-7.53,14.19-7.79,8.18-.6,16.5-.46,24.69-.43,7.64,0,15.27.25,22.88-.34,7.81-.61,15.62-1.43,23.45-1.59,5.44-.11,10.85-.78,16.28-.8a45.41,45.41,0,0,1,6.83.38c.79-.15,1.58-.28,2.38-.39,3-.41,6.93-.85,9.36,1.37,5.35,4.85-1.22,10.92-5.16,13.87l-.79.58A37.09,37.09,0,0,1,210.69,55a38.78,38.78,0,0,1-6.91,4.83,28.22,28.22,0,0,1-3.53,1.55c-.07.11-.15.21-.22.31a2.05,2.05,0,0,1-.26,1.56c-1.25,1.92-2.73,3.66-4.1,5.49a64.12,64.12,0,0,0-3.9,6.26C191.25,75.92,190.71,76.83,190.16,77.74Zm87.7,53.85a56.83,56.83,0,0,1-17.33,5.07c-6.39.77-12.71.09-19-.92-7-1.12-13.29-3.75-19.93-6a52.85,52.85,0,0,1-8.86-3.42c-2.24-1.24-4.15-3.63-6.57-4.44a2.17,2.17,0,0,1-1.45-1.44,20.31,20.31,0,0,1-7.18-5.61c-3.75-4.88-4.82-10.68-3.91-16.66a70.62,70.62,0,0,1,4.81-18.08A35.29,35.29,0,0,1,205,70.77a1.92,1.92,0,0,1,.09-1.36c1.63-4.09,4.8-6.87,8.41-9.26A39,39,0,0,0,217.88,57,25,25,0,0,1,222,53.76c2.65-1.49,5.55-1.1,7.24,1.58,2.34,3.72,3.72,8.48,5.26,12.59,3.45,9.2,6.41,18.59,9.94,27.77.81,2.11,1.55,4.25,2.29,6.39a41.13,41.13,0,0,1,1.94,3.8c.76,1.73,1.29,3.56,1.88,5.36a5.13,5.13,0,0,0,1.52.2c.87,0,3.75.29,4.28-.69s-.56-2.84-.87-3.64c-.48-1.23-1-2.43-1.43-3.7a38.63,38.63,0,0,1-1-4.69A22.37,22.37,0,0,1,252,96.26c-1.07-3-1.69-6.15-2.77-9.16-1.23-3.43-3.2-6.52-4.89-9.73C242,72.88,239.09,66.9,238.07,61c-1.53-2.74-3-5.58-4.35-8.37s-.4-5.25,2.55-6.27a96.51,96.51,0,0,1,25.66-4.76,1.93,1.93,0,0,1,1.75.75c.86,0,1.72-.09,2.58-.11a49.44,49.44,0,0,1,8.94.23,25.91,25.91,0,0,1,5,1.31c4.9.52,9.62,1.74,13.44,4.78a8.18,8.18,0,0,1,1.92,1.12,2,2,0,0,1,1.92.66c.9,1,1.57,2.07,2.39,3.1l.05.05c9,4.63,13.52,15.13,14.79,24.85C317.82,102.17,297.83,122.27,277.86,131.59Z"/><path d="M259.42,37.16l-.36,0Z"/><path d="M2.3,96.26a1.57,1.57,0,0,0-.56-1.1c.08.64.15,1.28.23,1.91A.74.74,0,0,0,2.3,96.26Z"/><path class="cls-1" d="M3.56,100.88c.29-.12.45-.26.33-.81s-.57-.73-1-.76h0C3.11,99.83,3.33,100.36,3.56,100.88Z"/><path class="cls-1" d="M1.67,91a2.44,2.44,0,0,0-.53-1.07c.13,1.23.27,2.47.41,3.7C2.38,93.53,2.19,93.11,1.67,91Z"/><path class="cls-1" d="M.93,86.47a.54.54,0,0,0-.19-.42c.06.62.12,1.24.19,1.86A2.81,2.81,0,0,0,.93,86.47Z"/><path class="cls-1" d="M325.05,84.36a53.51,53.51,0,0,0-.77-7.34c-.82.1-1,.81-1.13,1.71-.24,1.49.86,2.65.83,4C324,83.82,324.33,84.21,325.05,84.36Z"/><path class="cls-1" d="M321.24,102.48h.14c.45-1,.89-2,1.33-3,.06-.23.13-.46.2-.69a2.62,2.62,0,0,0-2.84,2.1C319.56,102.47,319.46,102.51,321.24,102.48Z"/><path class="cls-1" d="M323.19,95.36c0,.06-.12.15-.16.14-1.76-.23-1.13,1.29-1.73,2.13h1.91q.44-1.65.78-3.33C323.58,94.37,323.48,94.6,323.19,95.36Z"/><path class="cls-1" d="M324.45,89.34c-.39,0-.85,0-1,.42s-.48.93,0,1.49a3.48,3.48,0,0,0,1,.85q.23-1.36.39-2.73Z"/><path class="cls-1" d="M324.88,88.53c.1-1,.18-2.1.21-3.16,0-.12,0-.24,0-.36v0l-.28,0c-.46-.07-.78.29-.8.82a4.35,4.35,0,0,1-.15,1.14C323.43,88.21,323.9,88.54,324.88,88.53Z"/><path class="cls-1" d="M314.71,78.38c.09.68.16,1.36.21,2a4.15,4.15,0,0,0,.07-1.74c0-.24,0-.48-.06-.72a.72.72,0,0,0-.36-.57C314.62,77.72,314.67,78.05,314.71,78.38Z"/><path class="cls-1" d="M233.71,48.26a2.78,2.78,0,0,0-.75.11c-.3.09-.2.4-.1.62s.21.47.3.71A3.72,3.72,0,0,1,233.71,48.26Z"/><path class="cls-1" d="M237.41,59.85l.72,1.57c0-.13,0-.27-.07-.4C237.85,60.63,237.63,60.24,237.41,59.85Z"/><path class="cls-1" d="M297.48,50.38a27.51,27.51,0,0,1,2,2.59c.11,0,.27,0,.39,0s.59.05.73-.32c-.07-.44-.47-.58-.76-.81a42.56,42.56,0,0,0-9.44-5.5c-10.47-4.69-21.53-5.53-32.82-4.64a68,68,0,0,0-11.29,2,106.62,106.62,0,0,1,15.64-2,1.93,1.93,0,0,1,1.75.75c.86,0,1.72-.09,2.58-.11a49.44,49.44,0,0,1,8.94.23,25.91,25.91,0,0,1,5,1.31c4.9.52,9.62,1.74,13.44,4.78a8.18,8.18,0,0,1,1.92,1.12A2,2,0,0,1,297.48,50.38Z"/><path class="cls-1" d="M245.55,79.63c.2.51.42,1,.66,1.51A19.94,19.94,0,0,1,248,86.82c.25-.55.45-1,.63-1.29C247.71,83.5,246.62,81.57,245.55,79.63Z"/><path class="cls-1" d="M308,60.59l.2,0a12.75,12.75,0,0,0-2.29-2.89c-1.52-1.71-2.83-3.76-5.45-3.84A23.71,23.71,0,0,1,308,60.59Z"/><path class="cls-1" d="M312.69,69.72c.21-.12.24-.35.06-.74-.26-.57-.2-1.36-.94-1.59C312.13,68.16,312.42,68.93,312.69,69.72Z"/><path class="cls-1" d="M311.33,66.29c.37-.17.07-.55-.09-.82-.37-.59-.47-1.38-1.19-1.7C310.51,64.59,310.93,65.43,311.33,66.29Z"/><path class="cls-1" d="M309.61,63a.75.75,0,0,0-.07-.83,4.12,4.12,0,0,0-1.05-.91C308.88,61.83,309.25,62.41,309.61,63Z"/><path class="cls-1" d="M313.88,73.82a2.34,2.34,0,0,1,.27.44,2.58,2.58,0,0,0-.06-.6A4.33,4.33,0,0,0,313,70.73C313.35,71.75,313.63,72.79,313.88,73.82Z"/><path class="cls-1" d="M13.35,67.36h0a45.67,45.67,0,0,1,3.23-5.85,1.3,1.3,0,0,0-1.32,1.24,1.44,1.44,0,0,1-.45.69,10.27,10.27,0,0,0-2,2.94C12.59,67,12.66,67.38,13.35,67.36Z"/><path class="cls-1" d="M9.93,78.22c.38-.24.78,0,1.15,0a29,29,0,0,1,2.15-5c.18-.7.38-1.39.61-2.08a2.43,2.43,0,0,1-.83-3,2.29,2.29,0,0,1,.1-.23,1.5,1.5,0,0,0-1.27.91,26.73,26.73,0,0,0-2.11,8.83C9.71,77.92,9.72,78.35,9.93,78.22Z"/><path class="cls-1" d="M10.8,79.48a5.73,5.73,0,0,1-1.52,1c.44.1.88.17,1.31.23C10.65,80.3,10.72,79.88,10.8,79.48Z"/><path class="cls-1" d="M76,75.78c-.21.5-.44,1-.66,1.48.72-.17,1.38-.4,1.18-1.6A.64.64,0,0,0,76,75.78Z"/><path class="cls-1" d="M74.28,79.51c-.25.6-.48,1.2-.7,1.8a2.5,2.5,0,0,1,.45.32l0,0a13.13,13.13,0,0,0,1.66-3.45l-.71-.09Z"/><path class="cls-1" d="M88.3,45.33A8.69,8.69,0,0,0,84,44.44a3.66,3.66,0,0,1-2.39-.3L81.45,44a.57.57,0,0,0-.52-.18,7.16,7.16,0,0,1-1.27.26,2.31,2.31,0,0,0,.74-.25.45.45,0,0,0,0-.39c.2-.32,0-.43-.27-.49A39,39,0,0,0,72,41.6h0a3.63,3.63,0,0,0-.87-.31,70.7,70.7,0,0,0-22,.36,82.38,82.38,0,0,0-10,2.71A58.29,58.29,0,0,0,30.6,48,42.83,42.83,0,0,0,17.45,58.86a5.11,5.11,0,0,0-1.31,2.08l.8.07A37.23,37.23,0,0,1,36.78,45.85c1.19-.36,2.39-.65,3.6-.93a2.33,2.33,0,0,1,.35-.22,23.11,23.11,0,0,1,8.18-2.41,18.17,18.17,0,0,1,4.09-1,12.78,12.78,0,0,1,1.63-.07,22.39,22.39,0,0,1,9.22.14c3.41.59,6.86,1,10.21,1.86,1.12.3,2.19.63,3.29.9.58,0,1.17,0,1.75,0-.53,0-1,0-1.58,0a17.61,17.61,0,0,0,1.92.38,13.94,13.94,0,0,1,3.85.84,5,5,0,0,1,1.76,1.23H88c.38,0,.93.43,1-.29C89.1,45.8,88.73,45.49,88.3,45.33ZM67.5,41.67c.79,0,1.64.07,2.52.06C69.14,41.74,68.29,41.7,67.5,41.67Z"/><path class="cls-1" d="M77.09,73c-.25.73-.54,1.44-.84,2.14a1.3,1.3,0,0,0,1.06-.77c.87-2,1.84-4,2.53-6.13h0a10.43,10.43,0,0,0,1.55-3.61C79.93,67.42,78.41,70.18,77.09,73Z"/><path class="cls-1" d="M87.14,47.19l-1.57.07a5.35,5.35,0,0,1,.74,2,12.38,12.38,0,0,1-.54,5.56L88.34,49C89,47.44,88.77,47.12,87.14,47.19Z"/><path class="cls-1" d="M79.65,44l-.28,0Z"/><path class="cls-1" d="M85.4,77.26c.18-.31.36-.62.55-.93q1.42-2.4,2.93-4.75c.41-1.19.84-2.38,1.29-3.55A3.69,3.69,0,0,0,88,70.49c-.79,1.87-1.62,3.72-2.54,5.52C85.06,76.73,85.09,77.09,85.4,77.26Z"/><path class="cls-1" d="M77.76,94.7a3.68,3.68,0,0,1-.06-.58c-.68.27-1,.85-1.45,1.37.71.59-.3.94-.22,1.58.31-.29.64-.47.77-.74a1.75,1.75,0,0,1,.69-.77A2.22,2.22,0,0,1,77.76,94.7Z"/><path class="cls-1" d="M128,86.18c.23-1.21-.12-1.63-1.16-1.64q.3.58.57,1.17A2,2,0,0,1,128,86.18Z"/><path class="cls-1" d="M131.64,91.65c-.86-.17-1.21,0-1.6.78-.06.12-.31.2-.48.22h-.24a5.58,5.58,0,0,1-.75,1.89c.68,0,1.35-.07,2-.13a1.74,1.74,0,0,0,1.75-1.57C132.44,92.34,132.39,91.79,131.64,91.65Z"/><path class="cls-1" d="M128.78,82.47c-.18-.4-1-.62-.58-1.26a2.34,2.34,0,0,0-.21-2.47,39.31,39.31,0,0,0-3.47-6c-.35-.48-.39-1.31-1.22-1.37l0,0s0,0,0,0h0c-.84-2.34-2.68-3.94-4.21-5.77-.49-.58-.62.13-.83.35s-.43.27-.23.61l1,.39c-.73.78-1.92.68-2.75,1.54,1.84,2.52,3.62,5.09,5.35,7.68,1.16,1.73,2.23,3.5,3.34,5.25.58.92,1.19,1.89,1.74,2.9a4.5,4.5,0,0,0,2-.57C129.27,83.41,129,83.06,128.78,82.47Z"/><path class="cls-1" d="M112.3,63.33c1.28,1.57,2.52,3.18,3.72,4.81a7.89,7.89,0,0,1,.88-2.84l0,0c.43-2.89-2-3.72-3.61-5.3-.57,1.34-.19,1.82,1.22,1.79A1.91,1.91,0,0,0,112.3,63.33Z"/><path class="cls-1" d="M91.73,64.17a39.61,39.61,0,0,1,3-5.72c1.19-1.88,2.78-4.08,5.13-4.44,4.25-.66,8.32,4.3,10.87,7.36a2.47,2.47,0,0,1,.81-2.29c.47-.36-.06-.66-.28-.94-.63-.79-1.59-.48-2.49-.66,1-.48,1-.52.36-1a2.52,2.52,0,0,0-1.49-.82,28.71,28.71,0,0,0-7.71-5c-2.31-1.12-2.61-.95-3.62,1.51a2.06,2.06,0,0,1-.12.26c-1.6,3.32-2.67,6.87-4.52,10.07C90.86,63.74,90.78,64.09,91.73,64.17Z"/><path class="cls-1" d="M106.91,55.63h0Z"/><path class="cls-1" d="M200.25,61.39c-.07.11-.15.21-.22.31a2.05,2.05,0,0,1-.26,1.56c-.35.53-.71,1.05-1.09,1.56a6.25,6.25,0,0,0,.57-.58c1.43-1.49,2.88-2.94,4.41-4.33A27.67,27.67,0,0,1,200.25,61.39Z"/><path class="cls-1" d="M187.57,33.77c5.44-.11,10.85-.78,16.28-.8a45.41,45.41,0,0,1,6.83.38c.79-.15,1.58-.28,2.38-.39,3-.41,6.93-.85,9.36,1.37a7,7,0,0,1,1.3,1.56c.47-.18.54-.65.55-1.21,0-.86-.62-.68-1.12-.73s-.86.26-1.26-.11c.46-.32,1-.09,1.42-.1.74,0,1.22-.21,1.2-1.06s-.43-.86-1.12-.95a37,37,0,0,0-5.77.11c-8.74.24-17.48.6-26.22.89-3.66.12-7.32.19-11,.27-.87,0-1.72,0-1.56,1.17C181.77,34,184.67,33.83,187.57,33.77Z"/><path class="cls-1" d="M221.92,43.93c1.11-.12,1.33-1,1.44-2A14.06,14.06,0,0,1,221.92,43.93Z"/><path class="cls-1" d="M221.43,44.49a30.42,30.42,0,0,1-4.17,3.71l-.79.58q-.83,1.13-1.74,2.19,3.48-2.56,7.09-4.95c.53-.35,1.26-.62.87-1.4S221.88,44.27,221.43,44.49Z"/><path class="cls-1" d="M66.76,97.78a.64.64,0,0,0,.44-.42l2-4.49L69,92.8c-.2.42-.39.83-.59,1.24C67.85,95.28,67.27,96.52,66.76,97.78Z"/><path class="cls-1" d="M70.9,88.71a.8.8,0,0,0,.33-.43,12.47,12.47,0,0,0,1.14-3.07l-.09,0c-.21.62-.43,1.23-.68,1.84S71.14,88.16,70.9,88.71Z"/><path class="cls-1" d="M10.49,81.57h0c-1.31,0-1.07.86-1,1.57s-.38,1.7.89,1.75A23,23,0,0,1,10.49,81.57Z"/><path class="cls-1" d="M12.6,94.11c-.78-.07-1.11.2-.82,1.17.67,2.25.87,2.73,2.49,2.74C13.66,96.74,13.1,95.43,12.6,94.11Z"/><path class="cls-1" d="M11,89.1,11,89a18.93,18.93,0,0,1-.52-3.13,1,1,0,0,0-.63.74A2,2,0,0,0,11,89.1Z"/><path class="cls-1" d="M11.2,89.86,11,90c-1.31.68-.39,1.67-.08,2.23s.58.06.89-.25C11.61,91.26,11.39,90.56,11.2,89.86Z"/><path class="cls-1" d="M126.68,68.68c-1.76-2.16-3.58-4.22-5.19-6.51-1.44-2-2.75-4.17-4.31-6.12a27.67,27.67,0,0,0-2.11-2.34,15,15,0,0,1-4-1.9A15.61,15.61,0,0,1,107.18,48c-.22-.12-.45-.24-.66-.37-1.54-.9-3.43-2-4.16-3.67-2.9-6.86,10.61-7.53,14.19-7.79s7-.38,10.51-.43a1.71,1.71,0,0,1,.19-.42,2.08,2.08,0,0,0,0,.42l1.13,0a3,3,0,0,1,0-.4c0-.94-.72-.76-1.26-.74-3,.09-6,.06-9,.2-4,.19-8.12.18-12.18.21-1.75,0-3,.59-3.36,2.45a3.7,3.7,0,0,0-.46.68c-.57,1.4-2.08,2.55-1.14,4.37.17.33-.14.47-.54.61a11,11,0,0,0-4,1.89,4.58,4.58,0,0,1,2.81,1.16c1.17,1.09,2.85,1.24,4,2.42.71.74,2,.33,2.87,1.18a1.22,1.22,0,0,0,1.65.3c.66-.34,1.4.14,1.38,1.11,0,.36-.28.81.22,1,1.16.47,1.86,1.52,2.88,2.16,2.32,1.46,4.15,3.5,6.26,5.21,2.63,2.13,4.42,5.05,6.68,7.54a32.94,32.94,0,0,1,4.66,6.21,14.51,14.51,0,0,0,2.14,3.08A58.55,58.55,0,0,0,126.68,68.68Z"/><path class="cls-1" d="M126,119.29a29.88,29.88,0,0,1-5,6,47.82,47.82,0,0,1-11.65,8.31,53.88,53.88,0,0,1-16.9,5.23,9,9,0,0,1,1.2-2.86c.71-1.18-.09-1.22-.72-1.36a3.69,3.69,0,0,0-1,0l-1.27.15a.35.35,0,0,0-.12.41c.17.83,0,1.84.84,2.37,1.13.74.26,1.18-.23,1.45-2.06,1.12-3.52.39-4-1.9a4.27,4.27,0,0,1-.09-1,2.65,2.65,0,0,0-.08-1.08c-1.32.05-2.63,0-3.95,0a2.17,2.17,0,0,1-2.39.93c-.85-.2-1.7-.38-2.55-.56a4,4,0,0,0-.69.83c-2.2,3.41-2.2,3.4-6.17,2.68-13.78-2.49-26.54-7.44-37.82-15.88a56.86,56.86,0,0,1-9.68-8.79,17.27,17.27,0,0,1-3.58-4.36c-1-.66-1.32-1.94-2.29-2.68-.27.45,0,.73.18,1a41.23,41.23,0,0,0,4.06,5.45c.3.29.67.64.39,1.14s-.66.34-1,.35-.66-.24-.61-.74-.34-.55-.53-.81c-.57-.77-1.53-1.2-1.87-2.16-.51-1.44-1.9-2.18-2.7-3.38-.25-.37-.58-.31-.87,0s-.54.37-.28.71c.77,1,.93,2.38,2.2,3.2s1.67,2.82,3.13,3.74a.3.3,0,0,1,.09.26c-.17,1.46,1,2.52,1.76,3.14,2.1,1.66,3.81,3.72,5.9,5.33,3.09,2.38,6,5,9.56,6.79,1.54.76,3,2.12,4.49,2.5,2.09.52,3.8,1.69,5.77,2.37a18.08,18.08,0,0,0,6,1.44c1.33,0,1.4.46,1.5,1.37,1.3-.88,1.64-.74,3.37-.27,1.23.34,2.5.71,3.7.93q5.31,1,10.61,2.07a25.79,25.79,0,0,0,8.51.53c1.29-.17,2.78.05,4.11-.06a73.66,73.66,0,0,0,10.92-1.57,51.48,51.48,0,0,0,16-6.72,66.63,66.63,0,0,0,6.88-5.45c2.81-2.35,4.67-5.39,6.92-8.14a3.48,3.48,0,0,0,.81-1.77A2.1,2.1,0,0,0,126,119.29Z"/><path class="cls-1" d="M247.3,141.94c-.33-.57-.66-.7-.88.05a2.84,2.84,0,0,0,0,1c.08,1.19-.3,1.35-1.59,1.38a15.72,15.72,0,0,1-5.32-.33c-2.48-.86-5.11-.59-7.58-1.33a2.81,2.81,0,0,1-1.26-.92c-.55-.59-1.15-1.68-1.84-.05-.22.53-.68.27-.87-.13-.43-.94-1.15-.82-1.76-.37-1.11.8-1.47.19-1.58-.78-.06-.66-.34-1.26-.89-.72-1.09,1.09-2.37.51-3.16.15-3-1.32-6.24-2-9-3.82-1.76-1.15-3.69-2.13-5.06-3.69-2-2.34-5-3.59-6.82-6.12-.84-1.2-1.73-2.34-2.62-3.49a.7.7,0,0,1,0-.93c.23-.3.26-.46-.2-.58-.89-.24-.88-.72-.15-1.15s0-.7-.13-1c-.34-.55-.31-1.17.16-1.41s.55.46.76.78a43.56,43.56,0,0,0,19.2,16.09,60.73,60.73,0,0,0,16,4.48c.23,0,.47.14.67-.06-.29-1-.29-1,.45-2.08.2,2.37,1.81,2.55,3.52,2.63,3.71.17,7.39.83,11.14.22,1.22-.2,1.17-.47.52-1.26a10.18,10.18,0,0,1-.76-1.19,1.85,1.85,0,0,1,.3,0c1.19,2.55,3.26,2.16,5.49,1.83,15.71-2.28,29.75-8.28,41.78-18.75,1.37-1.19,2.64-2.48,4-3.79.2.67-.26.82-.5,1.06a78.43,78.43,0,0,1-9.56,8.65,13.7,13.7,0,0,0-1.42,1.43h0c0,.61-.34.93-.84,1.26A70.41,70.41,0,0,1,269,137.46a121.46,121.46,0,0,1-15,3.38c-2.24.39-4.56.31-6.74,1.09C247.25,142.06,247.26,142.07,247.3,141.94Z"/><path class="cls-1" d="M183.38,93.52A6.61,6.61,0,0,1,181.74,95h.65a4.89,4.89,0,0,0,2.26-.24c1.07-.5.41-1.48.76-2.16a2.3,2.3,0,0,0,.21-.69c.13-1.07.41-2.11.62-3.17A22.79,22.79,0,0,1,183.38,93.52Z"/><path class="cls-1" d="M141.12,93.86a7.16,7.16,0,0,1-1.47-1.6,11.44,11.44,0,0,0,.61,1.85,12,12,0,0,0,2.25.59A6.69,6.69,0,0,1,141.12,93.86Z"/><path class="cls-1" d="M228.76,54.72c-.44-1-.95-1.93-1.42-2.9a.75.75,0,0,0-1.1-.39c-1.1.7-2.28,1.26-3.41,1.92A4.91,4.91,0,0,1,228.76,54.72Z"/><path class="cls-1" d="M217.88,57c.58-.51,1.16-1,1.75-1.55a8.8,8.8,0,0,0-2.57,1.91l.32.07Z"/><path class="cls-1" d="M6.92,108.23a2.55,2.55,0,0,1,.56.21,1.82,1.82,0,0,1-.29.32l.39.79a1.58,1.58,0,0,0,.15-.12c1.3-1.23.36-2.41-.3-3.56A4.16,4.16,0,0,0,5,104.16C5.63,105.52,6.27,106.88,6.92,108.23Z"/><path class="cls-1" d="M243.36,92.92l.15,0a6.87,6.87,0,0,0-.66-1.33Z"/><path class="cls-1" d="M239.06,80.81c.38-.07.41-.29.2-.72a20.49,20.49,0,0,0-1.14-2.3,1,1,0,0,0-.19-.22Z"/><path class="cls-1" d="M241.87,88.85c.43-.06.74-.14.62-.66s-.21-1.38-.79-1.38c-.19,0-.37,0-.56,0C241.39,87.47,241.63,88.16,241.87,88.85Z"/><path class="cls-1" d="M244.41,95.7q.42,1.1.81,2.19a5.31,5.31,0,0,1,1.46.21c-.41-1.06-.69-1.82-1-2.57a.89.89,0,0,0-.91-.58l-.64,0C244.22,95.21,244.31,95.45,244.41,95.7Z"/><path class="cls-1" d="M3.5,97.28c-.34-.9-.61-1.83-.9-2.75-.17-.55-.53-.82-1-.7,0,.26.06.53.1.79L3,98C3.54,97.94,3.69,97.81,3.5,97.28Z"/><path class="cls-1" d="M318.7,108.32c-1,.13-2,.29-3,.46.67.66,1.2,1.43,1.77,2.1C317.88,110,318.29,109.17,318.7,108.32Z"/><path class="cls-1" d="M204.72,71.07a13.58,13.58,0,0,1-.44-1.61A27.24,27.24,0,0,0,201,73.68a2.11,2.11,0,0,0,0,1.88A51.05,51.05,0,0,1,204.72,71.07Z"/><path class="cls-1" d="M249.21,87.1c-.06-.19-.14-.37-.22-.56a1.94,1.94,0,0,0,.24,1.84,7.75,7.75,0,0,1,.72,1C249.73,88.62,249.49,87.86,249.21,87.1Z"/><path class="cls-1" d="M15.67,100.7c-.24-.42-.47-.85-.7-1.28a3,3,0,0,0-1.59.45c.82.68.72,2,1.64,2.58C14.69,101.53,15,101,15.67,100.7Z"/><path class="cls-1" d="M66.2,99a8.2,8.2,0,0,0-.53,1.47C66,100.08,66.42,99.62,66.2,99Z"/><path class="cls-1" d="M320.9,103.54c-1.72-.08-3,1-3.64,3.12-.13.42-.12.58.4.62l1.5.07c.39-.83.78-1.67,1.15-2.5Z"/><path class="cls-1" d="M.5,82a.69.69,0,0,0-.14-.24c0,.17,0,.34,0,.51.07.86.16,1.72.24,2.57a.43.43,0,0,0,.08-.27A7.29,7.29,0,0,0,.5,82Z"/><path class="cls-1" d="M193.89,96.35c.31-1.87.67-3.76,1.1-5.63-.6.08-1.43-.42-1.65.56a36,36,0,0,0-.69,4.26C192.57,96.44,193.06,96.69,193.89,96.35Z"/><path class="cls-1" d="M130.18,105.69l-.35,0c-.65-.52-1.52-.68-2.07-1.35l.06,0c-.37-.34,0-1.1-.79-1.25-.25,0-.12-.4,0-.59s.46-.49.86-.37.82.23,1.28.36c0,.56-.93,0-.8.69l.1.2c.35-.4,1,0,1.35-.56a1.6,1.6,0,0,1,2.46-.38l0,0a16,16,0,0,1-.73,4.23l0,0C131.37,106,131.12,105.36,130.18,105.69Z"/><path class="cls-1" d="M198,81.16c.14-.35.3-.71.45-1.06a23.83,23.83,0,0,1,1.29-2.46l-.18-.4c-.23-.45,1.24-.09.24-.64-.58-.32-.64.26-.81.53-.5.82-1,1.65-1.42,2.51-.21.43-.8.83-.31,1.41A1.48,1.48,0,0,0,198,81.16Z"/><path class="cls-1" d="M131.77,89.61a31.88,31.88,0,0,0-1.53-5.41c-.75,1.76.1,3.58-.84,5.18a1.81,1.81,0,0,0-.13.31c0,.24.08.48.11.71a.4.4,0,0,0,.19.11,4.59,4.59,0,0,0,2.08.13C132.09,90.55,131.84,90,131.77,89.61Z"/><path class="cls-1" d="M252.21,39c-.43-.13-1.22.12-1.29-.54s.67-.61,1.16-.76c.85-.25,1.8,0,2.57-.66.29-.25.85-.12,1.24.08s.17.41.08.64a.82.82,0,0,1-1.06.49C253.88,38.05,253.3,39.38,252.21,39Z"/><path class="cls-1" d="M85,78a1.1,1.1,0,0,0-.58.46,18.64,18.64,0,0,0-.84,1.81,1.08,1.08,0,0,0-.13.44C83.91,79.81,84.43,78.91,85,78Z"/><path class="cls-1" d="M167.07,29.26c-.74.08-1.45.44-2-.38-.23-.35-.59-.15-.91,0s-.71.2-.88-.17.19-.69.5-.9c1.05-.72,1.81.09,2.61.56A1.22,1.22,0,0,1,167.07,29.26Z"/><path class="cls-1" d="M193.75,28.1c-1.82.3-3.68.76-5.39-.92C190.39,27,192,28.21,193.75,28.1Z"/><path class="cls-1" d="M200.42,26.85c-.81,2-2.4,1.59-4.16,1.49a2.22,2.22,0,0,1,1.89-.58c.44,0,.87,0,.91-.44C199.19,25.88,199.88,26.72,200.42,26.85Z"/><path class="cls-1" d="M4.62,103.27a2.54,2.54,0,0,1,1.24-.16c-.44-.58-.11-1.78-1.18-1.68a1,1,0,0,0-.69.43Z"/><path class="cls-1" d="M13.27,119.3c.34-.39,1.3-.11,1.38-.89,0-.32.8-.29.9-.85-.1-.08-.19-.2-.31-.22-.36-.09-1.69.81-2.33,1.46Z"/><path class="cls-1" d="M72.89,103.46a7.28,7.28,0,0,1,1.25-.25c0-.08,0-.17,0-.25-.17-.28.06-.91-.72-.9s-.57.74-.93,1A.55.55,0,0,1,72.89,103.46Z"/><path class="cls-1" d="M274.54,4.4c-.39,0-.88-.17-.82-.61a1.71,1.71,0,0,1,1.36-1.32c.31-.08.51.21.49.56A1.26,1.26,0,0,1,274.54,4.4Z"/><path class="cls-1" d="M140.24,94.1c.31,1.65-1,1.45-2,1.69.65-.56.26-2.36,2-1.65Z"/><path class="cls-1" d="M320.55,68.48c-.05.57.31,1,.84.94a.68.68,0,0,0,.4-.18l-.55-1.06-.29-.51C320.71,67.78,320.59,68.08,320.55,68.48Z"/><path class="cls-1" d="M175.4,34.43l.27,0c.09-.67-.15-1-1-1-1,0-2.05,0-3.07,0C172.82,34.12,174.42,33,175.4,34.43Z"/><path class="cls-1" d="M131.58,106.64c-.14.69-.24,1.4-.43,2.09a.55.55,0,0,1-.91.32c-.46-.33-.1-.65.19-.74.83-.26,0-1.67,1.19-1.64Z"/><path class="cls-1" d="M251,144.13c-.64-.09-.62-.63-.71-1.07s.12-.55.49-.45.82.3.8.84C251.55,143.81,251.41,144.1,251,144.13Z"/><path class="cls-1" d="M195.37,115.25l-1.11-.44c-.3-.11-.92.06-.75-.52s.62-.25,1-.17C195.05,114.24,195.52,114.4,195.37,115.25Z"/><path class="cls-1" d="M162.2,29.44H160C160.77,28.52,161.18,28.51,162.2,29.44Z"/><path class="cls-1" d="M194.4,87.79c.44.46.86.93.61,1.5-.12.26-.75.25-.92.06C193.57,88.78,194.27,88.34,194.4,87.79Z"/><path class="cls-1" d="M212.42,28c-.37,0-.66-.21-.69-.58s.32-.44.59-.42.87-.12.86.43C213.17,27.77,212.75,27.92,212.42,28Z"/><path class="cls-1" d="M308.71,118.57c1.18.06,1.76.77,2.5,1.12A2.43,2.43,0,0,1,308.71,118.57Z"/><path class="cls-1" d="M158.13,29.55c-.27,0-.49-.13-.44-.41a.78.78,0,0,1,.71-.76c.36,0,.43.31.4.61A.59.59,0,0,1,158.13,29.55Z"/><path class="cls-1" d="M155.18,28.74c.42.06.93.06,1,.47s-.43.39-.72.38-.85,0-.87-.51S155,28.8,155.18,28.74Z"/><path class="cls-1" d="M15,102.52c.68.89,1.56,1.67,1.55,2.92a5.63,5.63,0,0,1-1.52-3Z"/><path class="cls-1" d="M80.41,43.41h0a4.43,4.43,0,0,1,2.67.3l-1.53.44,0,0C81.34,43.69,80.25,44.53,80.41,43.41Z"/><path class="cls-1" d="M224.65,26.33a.77.77,0,0,1-.75.55.39.39,0,0,1-.36-.51c.09-.36.31-.62.72-.56A.43.43,0,0,1,224.65,26.33Z"/><path class="cls-1" d="M215.08,59.09c-.67-.05-1,.45-1.58,1Z"/><path class="cls-1" d="M169.73,97.55l.29,0c.41,0,.59-1.11,1.21-.28.17.23.25.38,0,.58-.61.49-1.05.21-1.45-.3Z"/><path class="cls-1" d="M195.35,118.28a4,4,0,0,1,.53-2.26C196.21,116.79,196.21,116.79,195.35,118.28Z"/><path class="cls-1" d="M322.42,75.56a.42.42,0,0,1-.39-.5.52.52,0,0,1,.57-.51c.24,0,.52.13.5.4S322.74,75.47,322.42,75.56Z"/><path class="cls-1" d="M153.72,29.51c-.07.32-.32.34-.55.27s-.72-.1-.67-.55a.44.44,0,0,1,.55-.34A.73.73,0,0,1,153.72,29.51Z"/><path class="cls-1" d="M237.59,76.6a1.33,1.33,0,0,0,.21,0l-.88-2.06a.28.28,0,0,1,0,.09C237.14,75.3,237.37,76,237.59,76.6Z"/><path class="cls-1" d="M204.56,27.75c-.73.15-1.34.09-1.66-.8C203.71,26.9,204,27.59,204.56,27.75Z"/><path class="cls-1" d="M220.51,26.37c.3.07.59.2.59.53s-.28.34-.52.31a.51.51,0,0,1-.51-.42C220,26.49,220.23,26.37,220.51,26.37Z"/><path class="cls-1" d="M213.87,26.16a3.12,3.12,0,0,1,1.51.92C214.48,27.25,214.08,27,213.87,26.16Z"/><path class="cls-1" d="M226.78,26.24c-.43.41-.74.78-1.27.5a.37.37,0,0,1-.07-.35C225.77,26,226.18,26.09,226.78,26.24Z"/><path class="cls-1" d="M122.42,120.44a1.31,1.31,0,0,1-1.25,1c.58-.15,0-1.63,1.27-1Z"/><path class="cls-1" d="M201.77,27.74c0-.25.19-.32.4-.27a.53.53,0,0,1,.48.45.31.31,0,0,1-.33.37C202,28.29,201.84,28,201.77,27.74Z"/><path class="cls-1" d="M79.55,102.24l-2.31.12,0-.25h2.31Z"/><path class="cls-1" d="M217.78,27.16c-.67-.13-1-.2-1.13-.78C217.18,26.38,217.4,26.64,217.78,27.16Z"/><path class="cls-1" d="M151.07,29.51a.31.31,0,0,1-.38.28c-.2,0-.36-.13-.36-.34s.18-.3.38-.28A.37.37,0,0,1,151.07,29.51Z"/><path class="cls-1" d="M247.28,141.93a2.17,2.17,0,0,1,.65,1.53c-.68-.36-.56-1-.63-1.52Z"/><path class="cls-1" d="M257.3,143c-.42.33-.85.32-1.54-.12Z"/><path class="cls-1" d="M122.44,120.47c.44-.1.25-.88,1-.8-.35.4-.21,1.14-1.06.77Z"/><path class="cls-1" d="M170.54,28.33a1.16,1.16,0,0,1,1.15.78C171.1,29.1,170.9,28.73,170.54,28.33Z"/><path class="cls-1" d="M182.06,97.2a1.63,1.63,0,0,1-.4.31c-.18.08-.43,0-.37-.23s.28-.22.44-.29S182,96.92,182.06,97.2Z"/><path class="cls-1" d="M116.94,65.32c.45-.11.51-.8,1.22-.73-.29.58-.8.61-1.26.71Z"/><path class="cls-1" d="M172.34,97.21c.24.07.37.2.32.4a.38.38,0,0,1-.28.23.28.28,0,0,1-.27-.37C172.14,97.36,172.27,97.29,172.34,97.21Z"/><path class="cls-1" d="M106.65,29.34c0-.46.32-.56.6-.74C107.36,29.13,106.81,29.1,106.65,29.34Z"/><path class="cls-1" d="M178.3,28.29c-.18.09-.32.22-.38.19a.53.53,0,0,1-.17-.31s.14-.16.19-.14A2,2,0,0,1,178.3,28.29Z"/><path class="cls-1" d="M70.14,102.49l-.89.09v-.15h1Z"/><path class="cls-1" d="M185.4,97.81a4.42,4.42,0,0,1-.63.11c-.15,0-.32-.11-.18-.27a.83.83,0,0,1,.49-.2C185.15,97.45,185.24,97.63,185.4,97.81Z"/><path class="cls-1" d="M32.89,119.26c-.08-.19-.18-.3-.16-.39s.14-.2.21-.3c.07.1.19.2.19.3S33,119.08,32.89,119.26Z"/><path class="cls-1" d="M240.55,41.65c-.19,0-.34,0-.28-.2s.2-.15.32-.18.3,0,.23.17S240.62,41.59,240.55,41.65Z"/><path class="cls-1" d="M34.48,121l-.41.33c0-.13-.15-.28-.11-.36a1.35,1.35,0,0,1,.34-.38Z"/><path class="cls-1" d="M20.2,109.8l.36-.54c.06.1.18.23.16.31-.07.33-.34.22-.56.19Z"/><path class="cls-1" d="M90,66.68c0-.79.11-1.16.55-1.49C90.81,65.83,90.31,66,90,66.68Z"/><path class="cls-1" d="M86.83,40.11c.06-.06.11-.17.17-.17a.26.26,0,0,1,.21.14c.06.15,0,.28-.19.22S86.89,40.18,86.83,40.11Z"/><path class="cls-1" d="M247.84,39.47c-.05.06-.09.17-.15.18s-.13-.08-.2-.13.1-.17.15-.17S247.77,39.42,247.84,39.47Z"/><path class="cls-1" d="M163.23,33.83h.63v.06h-.64Z"/><path class="cls-1" d="M232.77,31.78c-.05-.07-.14-.14-.15-.22s.08-.13.13-.19.14.13.14.21S232.82,31.71,232.77,31.78Z"/><path class="cls-1" d="M23.72,114.11l.05.06c.05-.21,0-.5.37-.45,0,0,.09.06.08.1C24.21,114.17,23.92,114.07,23.72,114.11Z"/><path class="cls-1" d="M88.81,40.6c.07.06.17.1.18.16s0,.27-.21.24a.3.3,0,0,1-.12-.21C88.67,40.73,88.76,40.67,88.81,40.6Z"/><path class="cls-1" d="M207.42,27.84c-.07,0-.16.1-.2.08s-.16-.13-.16-.2.13-.22.26-.12S207.39,27.75,207.42,27.84Z"/><path class="cls-1" d="M132.28,14a2,2,0,0,1-.11.2,1.3,1.3,0,0,1-.15-.18s0-.11.06-.1A.7.7,0,0,1,132.28,14Z"/><path class="cls-1" d="M270.62,5.38l-.23.15a2.27,2.27,0,0,1-.19-.34s.16-.13.17-.12A1.89,1.89,0,0,1,270.62,5.38Z"/><path class="cls-1" d="M223.53,140.77a1.4,1.4,0,0,1-.13-.34s.19-.12.2-.11a2,2,0,0,1,.19.31Z"/><path class="cls-1" d="M11.8,93.49c-.18,0-.33.06-.39,0s-.09-.23-.13-.36c.12,0,.27-.08.36,0S11.73,93.31,11.8,93.49Z"/><path class="cls-1" d="M302.16,114.27c-.07.06-.13.13-.2.18s-.14-.12-.13-.14a1.62,1.62,0,0,1,.18-.2Z"/><path class="cls-1" d="M223,27.47l-.2-.13a1.3,1.3,0,0,1,.18-.15s.1,0,.1.07A1.8,1.8,0,0,1,223,27.47Z"/><path class="cls-1" d="M169.76,97.53l-.65,0,0-.23.6.28S169.76,97.53,169.76,97.53Z"/><path class="cls-1" d="M14.49,116.4c-.06.06-.11.17-.18.18a.25.25,0,0,1-.22-.13c-.05-.16,0-.28.21-.25S14.43,116.32,14.49,116.4Z"/><path class="cls-1" d="M13.38,99.87l-.2-1c.53.3.32.65.19,1Z"/><path class="cls-1" d="M239.76,82l-.07.25a1.14,1.14,0,0,1-.23-.27c0-.05,0-.15.07-.23Z"/><path class="cls-1" d="M132.61,8.3a1,1,0,0,1,.08.24.63.63,0,0,1-.08.23.65.65,0,0,1-.08-.22A.9.9,0,0,1,132.61,8.3Z"/><path class="cls-1" d="M121.78,119.27l.12.08a1.37,1.37,0,0,1-.17.17s-.07,0-.11-.08Z"/><path class="cls-1" d="M288.32,127.76a1.33,1.33,0,0,1,1-.25c-.29.45-.69.15-1,.23Z"/><path d="M5.32,59.65c-.12.07-.24.17-.27.15a2.43,2.43,0,0,1-.24-.3c.07,0,.17-.13.21-.11A1.74,1.74,0,0,1,5.32,59.65Z"/><path d="M8.54,55.6l-.36-.38.22-.11c0,.17.08.34.13.52C8.52,55.63,8.54,55.6,8.54,55.6Z"/><path d="M67.51,41.91l.65,0c1.24,0,2.61.41,3.83-.3H65.66Z"/><path d="M78.55,44.36c1,0,2-.11,3-.2-.42-.2-1-.24-1.18-.75-.44.66-1.11.46-1.72.47H76.56C77.22,44.07,77.87,44.23,78.55,44.36Z"/><path d="M10.89,77.15a.53.53,0,0,1-.59.28s-.09-.2-.06-.23A.51.51,0,0,1,10.89,77.15Z"/><path d="M11.57,74.16a2.3,2.3,0,0,1-.47.13c-.12,0-.32,0-.26-.19a.28.28,0,0,1,.24-.12A2.19,2.19,0,0,1,11.57,74.16Z"/><path d="M123.66,73c.33.74,1.53,1.22.83,2.09a1.79,1.79,0,0,1-1.89.67c-.94-.3-.51-1.07-.57-1.82a.8.8,0,0,0,1.23.45C123.83,74.06,123.72,73.5,123.66,73Z"/><path d="M97.14,55.35a3.58,3.58,0,0,0-1.42.38h1Z"/><path d="M107,57.28a1.07,1.07,0,0,0,.17-.77c-.08-.65-.16-.65.41-.89-1-.19-1.5,0-1.5.83C106.38,56.72,106.69,57,107,57.28Z"/><path d="M93.58,60.34c.23-.44.48-.86.73-1.28a1.34,1.34,0,0,1,0-.21,4.2,4.2,0,0,0,0-.51c-.49.24-.18.52-.29.7s-.4.41-.53.65S93.36,60.28,93.58,60.34Z"/><path d="M123.27,71.37c-.4-.08-.27.53-.58.47s-.22-.31-.11-.48c.23-.38.47-.16.7,0C123.28,71.4,123.27,71.37,123.27,71.37Z"/><path d="M127.76,104.3c.86.19,1.78.29,2.07,1.35C129.13,106,127.93,105.23,127.76,104.3Z"/><path d="M126.51,104.26c.16.17.43.31.46.5s-.23.23-.43.2l-1.4-.13c.37-.66,1-.38,1.42-.53Z"/><path d="M128.29,107.92c-.28-.31-.6-.58-.54-1.08.76,0,.45.65.68.93C128.44,107.77,128.34,107.86,128.29,107.92Z"/><path d="M98.5,102.77c.43,0,.77-.84,1.35-.16-.43.45-.93,0-1.35.16Z"/><path d="M127.54,117c-.18,0-.48.28-.45-.18,0-.11.17-.33.22-.32.34.07.07.38.19.54Z"/><path d="M125.82,101.58c-.14.16-.21.31-.31.34s-.23-.08-.34-.12c.07-.11.12-.27.22-.31S125.63,101.53,125.82,101.58Z"/><path d="M103.7,102c-.08,0-.17.09-.23.08s-.09-.13-.13-.2.16-.09.23-.08S103.65,102,103.7,102Z"/><path d="M124.94,115c-.21-.06-.48,0-.59-.24a.14.14,0,0,1,.06-.11c.31-.06.35.23.49.39Z"/><path d="M114.05,36.32a6,6,0,0,0-1.72-1c-.81-.37-.89.61-1.63.67-.4,0-.47.36-.44.77C111.6,36.57,112.92,36.42,114.05,36.32Z"/><path d="M102.52,37.41l1,.14c-.48.3-.84.61-1-.19Z"/><path d="M82.78,136.66c-.16-.3-.23-.84-.46-1a2.15,2.15,0,0,1-.76.27l-.16.17a.51.51,0,0,1-.77,0,.21.21,0,0,1,0-.21l-1.1-.25a2.23,2.23,0,0,0-.42,1.62,8.33,8.33,0,0,0,.55,2.21,1.17,1.17,0,0,0,1.09.81c2.06.29,2.76-.45,2.34-2.48A3.94,3.94,0,0,0,82.78,136.66Z"/><path d="M78.55,136.49c-.41,1.21-1.15,1.95-1.35,2.94,0,.28-.35.29-.59.18s-.39-.22-.24-.43C77,138.34,77.29,137.21,78.55,136.49Z"/><path d="M194,95.67c-.06-.3-.29-.54-.79-.72.27.55.47,1,.68,1.38C193.93,96.11,194,95.89,194,95.67Z"/><path d="M132.31,102.41c-.36-.11-.34.64-.77.35,0,0,0-.19,0-.25.22-.28.51-.13.79-.09C132.33,102.43,132.31,102.41,132.31,102.41Z"/><path d="M131.23,104.43a1.67,1.67,0,0,1,.25.09.81.81,0,0,1-.13.38c-.14.14-.27,0-.27-.12S131.18,104.54,131.23,104.43Z"/></g></g></svg>